<?xml version="1.0" encoding="UTF-8"?>
<!DOCTYPE svg PUBLIC "-//W3C//DTD SVG 1.1//EN" "http://www.w3.org/Graphics/SVG/1.1/DTD/svg11.dtd">
<!-- Creator: CorelDRAW 2020 (64 Bit) -->
<svg xmlns="http://www.w3.org/2000/svg" xml:space="preserve" width="31px" height="31px" version="1.1" style="shape-rendering:geometricPrecision; text-rendering:geometricPrecision; image-rendering:optimizeQuality; fill-rule:evenodd; clip-rule:evenodd"
viewBox="0 0 0.53 0.53"
 xmlns:xlink="http://www.w3.org/1999/xlink"
 xmlns:xodm="http://www.corel.com/coreldraw/odm/2003">
 <defs>
  <style type="text/css">
   <![CDATA[
    .fil0 {fill:white}
   ]]>
  </style>
 </defs>
 <g id="Camada_x0020_1">
  <metadata id="CorelCorpID_0Corel-Layer"/>
  <path class="fil0" d="M0.3 0.53l0.07 0 0 -0.1 0.06 0 0 0.1 0.07 0c0,-0.03 0,-0.06 0,-0.08 0,-0.03 0.01,-0.03 0.03,-0.05 -0.01,-0.01 -0.03,-0.03 -0.03,-0.04 0,-0.01 0,-0.05 0,-0.06 -0.02,0 -0.06,0 -0.07,0 -0.01,-0.01 -0.02,-0.03 -0.03,-0.03l-0.13 0.13c0,0.01 0.01,0.01 0.02,0.02 0.01,0.01 0.01,0.01 0.01,0.03 0,0.03 0,0.05 0,0.08z"/>
  <path class="fil0" d="M0 0.18l0 0.04c0.01,0.01 0.01,0.03 0.01,0.05 0.02,0.04 0.12,0.19 0.15,0.23 0.01,0.02 0.01,0.02 0.03,0.03l0.02 0c0.03,-0.02 0.02,-0.01 0.04,-0.03 0.01,-0.02 0.02,-0.04 0.03,-0.05l-0.03 -0.02c-0.01,0.01 -0.02,0.04 -0.03,0.05 -0.02,0.03 -0.03,0.01 -0.04,-0.01 -0.02,-0.03 -0.05,-0.06 -0.07,-0.1 -0.04,-0.07 -0.1,-0.14 -0.07,-0.23 0.06,-0.16 0.29,-0.14 0.32,0.03 0.01,0.03 0,0.04 0,0.07l0.03 0.01c0.02,-0.1 -0.01,-0.17 -0.09,-0.22 -0.04,-0.03 -0.06,-0.02 -0.08,-0.03l-0.04 0c-0.02,0.01 -0.07,0 -0.12,0.06 -0.02,0.01 -0.03,0.03 -0.04,0.05 0,0.01 -0.01,0.02 -0.01,0.03 -0.01,0.02 -0.01,0.03 -0.01,0.04z"/>
  <path class="fil0" d="M0.17 0.21c-0.01,-0.05 0.05,-0.06 0.06,-0.02 0.01,0.04 -0.05,0.06 -0.06,0.02zm0.02 -0.08c-0.09,0.02 -0.07,0.15 0.02,0.13 0.03,0 0.06,-0.03 0.06,-0.07 -0.01,-0.04 -0.04,-0.06 -0.08,-0.06z"/>
 </g>
</svg>
