<?xml version="1.0" encoding="UTF-8"?>
<!DOCTYPE svg PUBLIC "-//W3C//DTD SVG 1.1//EN" "http://www.w3.org/Graphics/SVG/1.1/DTD/svg11.dtd">
<!-- Creator: CorelDRAW 2020 (64 Bit) -->
<svg xmlns="http://www.w3.org/2000/svg" xml:space="preserve" width="30px" height="31px" version="1.1" style="shape-rendering:geometricPrecision; text-rendering:geometricPrecision; image-rendering:optimizeQuality; fill-rule:evenodd; clip-rule:evenodd"
viewBox="0 0 0.5 0.51"
 xmlns:xlink="http://www.w3.org/1999/xlink"
 xmlns:xodm="http://www.corel.com/coreldraw/odm/2003">
 <defs>
  <style type="text/css">
   <![CDATA[
    .fil0 {fill:white}
   ]]>
  </style>
 </defs>
 <g id="Camada_x0020_1">
  <metadata id="CorelCorpID_0Corel-Layer"/>
  <path class="fil0" d="M0.39 0.24c-0.02,0 -0.04,-0.01 -0.06,-0.01 -0.02,-0.01 -0.15,-0.04 -0.15,-0.04l0.05 0.21c0.01,-0.01 0.04,-0.04 0.05,-0.04 0.01,0 0.02,0.01 0.02,0.01 0.01,0.01 0.01,0.02 0.02,0.03l0.09 0.08c0,0 0.06,-0.06 0.06,-0.06 -0.01,-0.01 -0.02,-0.02 -0.02,-0.03l-0.09 -0.08c0,0 -0.02,-0.01 -0.01,-0.02 0,-0.01 0.03,-0.05 0.04,-0.05zm-0.15 0.19c-0.01,0 -0.02,0 -0.02,-0.01 -0.01,0 -0.01,-0.03 -0.02,-0.04l-0.05 -0.2c0,0 0,-0.01 0,-0.02 0.01,0 0.02,0 0.02,0 0.04,0.01 0.24,0.06 0.24,0.07 0.02,0.01 0,0.02 -0.01,0.03 -0.01,0.01 -0.02,0.02 -0.03,0.03 0.01,0 0.02,0.01 0.03,0.02l0.06 0.06c0.05,0.05 0.05,0.04 0.01,0.07 -0.01,0.01 -0.06,0.06 -0.06,0.07 -0.01,0 -0.02,-0.01 -0.03,-0.02l-0.06 -0.06c-0.01,-0.01 -0.01,-0.02 -0.02,-0.02 0,-0.01 -0.01,-0.01 -0.01,-0.01l-0.01 -0.01c0,0 0,0 0,-0.01l-0.04 0.05z"/>
  <path class="fil0" d="M0.01 0.19c-0.01,-0.01 0,-0.02 0.01,-0.02 0.01,0 0.02,0 0.03,0.01 0.01,0 0.05,0.01 0.05,0.01 0.01,0.01 0,0.02 -0.01,0.02 -0.01,0 -0.08,-0.02 -0.08,-0.02z"/>
  <path class="fil0" d="M0.14 0.37c0,0 -0.03,0.03 -0.04,0.04 -0.01,0 -0.02,0.01 -0.02,0.02 -0.01,0 -0.02,0 -0.02,-0.01 0,-0.01 0,-0.01 0.01,-0.01l0.05 -0.05c0,-0.01 0.02,0 0.02,0.01z"/>
  <path class="fil0" d="M0.19 0.01c0,0 0,0.01 0.01,0.02l0.01 0.05c0,0.02 0,0.03 -0.01,0.02 -0.01,0 -0.01,-0.01 -0.01,-0.02 -0.01,-0.01 -0.01,-0.02 -0.01,-0.03 -0.01,-0.01 -0.01,-0.02 -0.01,-0.03 0,-0.01 0,-0.02 0.02,-0.01z"/>
  <path class="fil0" d="M0.07 0.3c-0.01,0.01 -0.01,0.01 -0.02,0.01 -0.02,0 -0.05,0.02 -0.05,-0.01 0,-0.01 0.01,-0.01 0.02,-0.01 0.01,0 0.02,0 0.03,-0.01 0.01,0 0.02,0 0.03,0 0.01,-0.01 0.02,0 0.02,0.01 0,0.01 -0.02,0.01 -0.03,0.01z"/>
  <path class="fil0" d="M0.42 0.06c0.02,0.01 0.01,0.02 0,0.02l-0.03 0.04c-0.01,0.01 -0.02,0.02 -0.03,0.02 0,-0.01 -0.01,-0.01 0,-0.02 0,0 0.02,-0.02 0.02,-0.03l0.03 -0.03c0,0 0.01,0 0.01,0z"/>
  <path class="fil0" d="M0.31 0c0.01,0 0.01,0.01 0,0.02l-0.01 0.06c0,0.01 0,0.02 -0.02,0.02 -0.01,-0.01 0,-0.02 0,-0.03l0.01 -0.05c0,-0.01 0,-0.01 0.01,-0.02 0,0 0,0 0.01,0z"/>
  <path class="fil0" d="M0.08 0.07c0,0.01 0.03,0.03 0.04,0.04 0,0.01 0.01,0.01 0.01,0.02 0.01,0.01 0,0.02 -0.01,0.02l-0.06 -0.06c0,-0.01 0.01,-0.02 0.02,-0.02z"/>
 </g>
</svg>
