<?xml version="1.0" encoding="UTF-8"?>
<!DOCTYPE svg PUBLIC "-//W3C//DTD SVG 1.1//EN" "http://www.w3.org/Graphics/SVG/1.1/DTD/svg11.dtd">
<!-- Creator: CorelDRAW 2020 (64 Bit) -->
<svg xmlns="http://www.w3.org/2000/svg" xml:space="preserve" width="16px" height="32px" version="1.1" style="shape-rendering:geometricPrecision; text-rendering:geometricPrecision; image-rendering:optimizeQuality; fill-rule:evenodd; clip-rule:evenodd"
viewBox="0 0 0.14 0.28"
 xmlns:xlink="http://www.w3.org/1999/xlink"
 xmlns:xodm="http://www.corel.com/coreldraw/odm/2003">
 <defs>
  <style type="text/css">
   <![CDATA[
    .fil0 {fill:white}
   ]]>
  </style>
 </defs>
 <g id="Camada_x0020_1">
  <metadata id="CorelCorpID_0Corel-Layer"/>
  <path class="fil0" d="M0.06 0.28l0.01 0c0,0 0.06,-0.01 0.05,-0.03 0,-0.01 -0.06,0.02 -0.03,-0.03 0,-0.01 0.01,-0.03 0.02,-0.04 0.03,-0.07 -0.05,-0.09 -0.1,-0.06 -0.01,0 -0.01,0 -0.01,0.02 0.01,0.01 0.01,0 0.03,0 0.01,0 0.01,0 0.01,0.02 -0.01,0.03 -0.04,0.06 -0.03,0.1 0.01,0.02 0.04,0.02 0.05,0.02z"/>
  <path class="fil0" d="M0.1 0l-0.01 0c-0.01,0 -0.02,0 -0.03,0.01 -0.02,0.03 0,0.08 0.04,0.08 0.04,0 0.06,-0.06 0.02,-0.08 -0.01,-0.01 -0.01,-0.01 -0.02,-0.01z"/>
 </g>
</svg>
