<?xml version="1.0" encoding="UTF-8"?>
<!DOCTYPE svg PUBLIC "-//W3C//DTD SVG 1.1//EN" "http://www.w3.org/Graphics/SVG/1.1/DTD/svg11.dtd">
<!-- Creator: CorelDRAW 2020 (64 Bit) -->
<svg xmlns="http://www.w3.org/2000/svg" xml:space="preserve" width="31px" height="31px" version="1.1" style="shape-rendering:geometricPrecision; text-rendering:geometricPrecision; image-rendering:optimizeQuality; fill-rule:evenodd; clip-rule:evenodd"
viewBox="0 0 0.52 0.52"
 xmlns:xlink="http://www.w3.org/1999/xlink"
 xmlns:xodm="http://www.corel.com/coreldraw/odm/2003">
 <defs>
  <style type="text/css">
   <![CDATA[
    .fil0 {fill:white}
   ]]>
  </style>
 </defs>
 <g id="Camada_x0020_1">
  <metadata id="CorelCorpID_0Corel-Layer"/>
  <path class="fil0" d="M0.3 0.32c0,0.01 -0.01,0.02 -0.02,0.02 -0.01,0.01 -0.02,0.01 -0.03,0.01 -0.07,0.03 -0.14,0.01 -0.19,-0.04 -0.04,-0.05 -0.06,-0.12 -0.03,-0.19 0.01,-0.02 0.03,-0.04 0.04,-0.05 0.01,-0.01 0.03,-0.03 0.05,-0.04 0.02,-0.01 0.04,-0.01 0.07,-0.01 0.05,0 0.09,0.02 0.12,0.04 0.03,0.03 0.05,0.07 0.05,0.12 0.01,0.07 -0.03,0.11 -0.04,0.12l0.05 0.05 0.02 -0.01 0.11 0.1c0.01,0.02 0,0.04 -0.01,0.05 -0.03,0.04 -0.07,-0.01 -0.08,-0.03 -0.03,-0.02 -0.05,-0.05 -0.07,-0.07l0.02 -0.03c0,0 0,0 -0.01,-0.01 -0.01,0.01 0,0.01 -0.01,0.01l-0.04 -0.04zm-0.3 -0.14l0 0.03c0.01,0.03 0.01,0.1 0.1,0.15 0.07,0.04 0.15,0.02 0.2,-0.01l0.03 0.02 -0.02 0.02c0.01,0.01 0.11,0.11 0.12,0.12 0.01,0.01 0.02,0.01 0.02,0.01l0.02 0c0.02,-0.01 0.02,0 0.03,-0.02 0.02,-0.01 0.01,-0.01 0.02,-0.03l0 -0.01c-0.01,-0.02 0,-0.02 -0.02,-0.04 -0.03,-0.04 -0.08,-0.08 -0.11,-0.11l-0.02 0.02 -0.02 -0.03c0.03,-0.05 0.05,-0.13 0.01,-0.2 -0.03,-0.05 -0.07,-0.08 -0.13,-0.09 0,-0.01 -0.02,-0.01 -0.02,-0.01l-0.03 0c-0.01,0 -0.03,0 -0.04,0.01 -0.03,0.01 -0.06,0.02 -0.08,0.05 -0.06,0.05 -0.05,0.1 -0.06,0.12z"/>
  <path class="fil0" d="M0.07 0.21c-0.02,-0.08 0.04,-0.13 0.1,-0.14 0.08,-0.02 0.14,0.04 0.15,0.1 0.01,0.08 -0.05,0.14 -0.11,0.15 -0.08,0.01 -0.13,-0.05 -0.14,-0.11zm0.11 -0.16c-0.08,0.01 -0.14,0.07 -0.13,0.16 0,0.07 0.07,0.13 0.16,0.12 0.07,0 0.13,-0.07 0.12,-0.16 0,-0.07 -0.07,-0.13 -0.15,-0.12z"/>
  <path class="fil0" d="M0.09 0.19l0.02 0c0,-0.03 0.01,-0.04 0.02,-0.06 0.01,0 0.02,-0.01 0.03,-0.02 0.01,0 0.02,0 0.03,0 0,0 0,0 0,-0.01l0 -0.01c-0.06,0 -0.1,0.04 -0.1,0.1z"/>
  <path class="fil0" d="M0.48 0.48c0,-0.01 0,0 -0.01,-0.01 0,0 -0.01,0 -0.01,-0.01 -0.01,0 -0.02,-0.01 -0.02,-0.02 -0.01,0.01 -0.01,0.01 -0.02,0.02 0.02,0 0.04,0.04 0.06,0.02z"/>
 </g>
</svg>
