<?xml version="1.0" encoding="UTF-8"?>
<!DOCTYPE svg PUBLIC "-//W3C//DTD SVG 1.1//EN" "http://www.w3.org/Graphics/SVG/1.1/DTD/svg11.dtd">
<!-- Creator: CorelDRAW 2020 (64 Bit) -->
<svg xmlns="http://www.w3.org/2000/svg" xml:space="preserve" width="24px" height="35px" version="1.1" style="shape-rendering:geometricPrecision; text-rendering:geometricPrecision; image-rendering:optimizeQuality; fill-rule:evenodd; clip-rule:evenodd"
viewBox="0 0 0.33 0.49"
 xmlns:xlink="http://www.w3.org/1999/xlink"
 xmlns:xodm="http://www.corel.com/coreldraw/odm/2003">
 <defs>
  <style type="text/css">
   <![CDATA[
    .fil0 {fill:white}
   ]]>
  </style>
 </defs>
 <g id="Camada_x0020_1">
  <metadata id="CorelCorpID_0Corel-Layer"/>
  <g id="_1666879044496">
   <path class="fil0" d="M0.16 0.08c0.04,-0.01 0.07,0.02 0.07,0.06 0.01,0.04 -0.02,0.07 -0.06,0.08 -0.04,0 -0.07,-0.03 -0.07,-0.07 -0.01,-0.04 0.02,-0.07 0.06,-0.07zm0 0.38l0.01 -0.01c0.01,-0.01 0.07,-0.1 0.07,-0.11 0.03,-0.03 0.05,-0.08 0.07,-0.12 0.02,-0.06 0.01,-0.11 -0.02,-0.15 -0.06,-0.09 -0.19,-0.09 -0.25,-0.01 -0.03,0.05 -0.04,0.1 -0.02,0.15 0.03,0.08 0.09,0.16 0.13,0.23 0.01,0.01 0.01,0.01 0.01,0.02z"/>
   <path class="fil0" d="M0.22 0.4c0.02,0 0.12,0.02 0.07,0.05 -0.05,0.03 -0.2,0.03 -0.26,0 -0.04,-0.03 0.03,-0.04 0.05,-0.05l0.03 0c0,-0.01 -0.01,-0.02 -0.01,-0.02 -0.02,0 -0.09,0.01 -0.1,0.04 0,0.02 0,0.03 0.01,0.04 0.03,0.02 0.1,0.03 0.15,0.03 0.06,0 0.13,0 0.16,-0.03 0.02,-0.03 0.01,-0.05 -0.02,-0.06 -0.01,-0.01 -0.05,-0.02 -0.07,-0.02 0,0 -0.01,0.01 -0.01,0.02z"/>
  </g>
 </g>
</svg>
