<?xml version="1.0" encoding="UTF-8"?>
<!DOCTYPE svg PUBLIC "-//W3C//DTD SVG 1.1//EN" "http://www.w3.org/Graphics/SVG/1.1/DTD/svg11.dtd">
<!-- Creator: CorelDRAW 2020 (64 Bit) -->
<svg xmlns="http://www.w3.org/2000/svg" xml:space="preserve" width="31px" height="30px" version="1.1" style="shape-rendering:geometricPrecision; text-rendering:geometricPrecision; image-rendering:optimizeQuality; fill-rule:evenodd; clip-rule:evenodd"
viewBox="0 0 0.52 0.51"
 xmlns:xlink="http://www.w3.org/1999/xlink"
 xmlns:xodm="http://www.corel.com/coreldraw/odm/2003">
 <defs>
  <style type="text/css">
   <![CDATA[
    .fil0 {fill:white}
   ]]>
  </style>
 </defs>
 <g id="Camada_x0020_1">
  <metadata id="CorelCorpID_0Corel-Layer"/>
  <path class="fil0" d="M0.11 0.48l0.18 0 0 0.02 -0.18 0 0 -0.02zm-0.02 -0.05l0 0.02 0 0.04 0 0.01 -0.01 0 -0.04 0 -0.01 0 0.06 -0.07zm0.02 0.02l0.18 0 0 0.02 -0.18 0 0 -0.02zm0.18 -0.01l-0.01 0 -0.16 0 -0.01 -0.01 0 -0.01 0.18 0 0 0.02zm-0.27 -0.42l0.07 0 0 0.07c-0.01,0 -0.02,0.01 -0.01,0.02 0.01,0 0.02,-0.01 0.01,0.01l-0.03 0c0,0.04 0.01,0.01 0.03,0.02 0,0.03 0,0.01 -0.01,0.02 0,0 -0.01,0 0,0.01 0,0.01 -0.01,0 0,0 0.01,0.01 0.01,0 0.01,0.02l-0.03 0 0 0.02c0.01,0 0.02,0 0.03,0 0,0.02 0,0 -0.01,0.01 0,0 0,-0.01 0,0.01 0,0.01 0,0 0,0.01 0.01,0 0.01,-0.01 0.01,0.01 -0.01,0 -0.02,0 -0.03,0l0 0.01c0,0 0,0 0.01,0l0.01 0.01c0.01,0 0.01,0 0.01,0 0,0.02 0,0.01 -0.01,0.01 0,0 -0.01,-0.01 0,0.01 0,0.02 0.01,-0.01 0.01,0.02 -0.01,0 -0.02,0 -0.03,0l0 0.01c0.01,0.01 0.02,0 0.03,0.01 0,0.02 0,0.01 -0.01,0.01 0,0 -0.01,0 0,0.01 0,0.02 0,0 0.01,0.01 0,0 0,-0.01 0,0.01 -0.03,0 -0.03,0 -0.03,0.02l0.03 0c0.01,0.02 0,0.02 -0.01,0.03 -0.02,0.02 -0.05,0.06 -0.06,0.06l0 -0.46zm0.29 0.39l-0.2 -0.01 0 -0.4 -0.11 0 0 0.51 0.31 0 0 -0.1z"/>
  <path class="fil0" d="M0.45 0.1l0.01 -0.01 0.04 0.04c-0.01,0.01 -0.04,0.04 -0.06,0.06l-0.17 0.17 -0.04 -0.04 0.01 -0.02c0.01,0.01 0.01,0.01 0.02,0.01l0 -0.01c0,0 0,0 0,-0.01l0.01 -0.01 0.02 0.02 0.01 0c-0.01,-0.02 -0.01,-0.02 -0.02,-0.03l0 -0.01c0.01,0.01 0.01,0.01 0.02,0.01l0.01 -0.01c-0.01,-0.01 0,0 -0.01,-0.01 0,-0.01 0,0.01 0,0l0.01 -0.01 0.02 0.02 0.01 -0.01c-0.01,-0.01 -0.01,-0.01 -0.02,-0.02l0.01 -0.01c0,0 -0.01,0 0,0 0.01,0.01 0,0 0.01,0.01l0.01 -0.01c0,-0.01 0,0 -0.01,-0.01l0.01 -0.01c0,0 0,0 0.01,0.01 0.01,0.01 0,0.01 0.01,0.01l0.01 -0.01c-0.01,-0.01 -0.02,-0.02 -0.02,-0.03 0.01,-0.01 0.01,0 0.02,0l0.01 0c0,-0.01 0,0 -0.01,-0.02l0.01 0 0.02 0.02c0.01,-0.01 0.01,-0.01 0.02,-0.01 -0.01,-0.01 -0.02,-0.02 -0.03,-0.03l0.01 -0.01c0.01,0.01 0.01,0.01 0.02,0.01l0.01 -0.01c-0.01,-0.01 -0.01,0 -0.01,-0.01l0.01 -0.01 0.02 0.02c0.01,-0.01 0,0 0.01,-0.01l-0.02 -0.02zm-0.25 0.22c0.01,0.01 0.02,0.02 0.04,0.03 0.01,0.01 0.02,0.03 0.03,0.03 0.03,-0.03 0.24,-0.23 0.25,-0.25l-0.06 -0.06 -0.26 0.25z"/>
  <path class="fil0" d="M0.18 0.26c-0.01,0 0,0 -0.01,0l0 -0.03 0.01 0c0,-0.02 -0.01,0 -0.01,-0.02 0.01,-0.01 0,0 0.01,0 0.01,-0.01 0.01,0 0.01,-0.01 0.01,-0.01 -0.01,-0.01 -0.01,-0.01 -0.01,0 -0.01,0.01 -0.01,-0.01l0.01 0c0,-0.04 0,-0.01 -0.01,-0.03 0.01,-0.01 0.01,0 0.02,0 0,-0.02 0.01,-0.02 -0.01,-0.02 -0.01,0 -0.01,0.01 -0.01,-0.01l0.01 0 0 -0.02 -0.01 0c0,0 0,0 0,0 0,-0.01 0,-0.01 0,-0.01l0.02 0 0 -0.02 -0.02 0c0,0 0,0.01 0,-0.01l0.01 0 0 -0.01 -0.01 0c0,-0.01 0,-0.01 0,-0.01 0,-0.01 0,-0.01 0,-0.01l0.23 0 -0.22 0.23zm-0.02 0.04c0.01,-0.01 0.27,-0.27 0.28,-0.28l-0.28 0 0 0.28z"/>
  <path class="fil0" d="M0.22 0.08l0.06 0 -0.06 0.07 0 -0.07zm-0.02 0.1c0.03,-0.01 0.05,-0.04 0.06,-0.06 0.02,-0.01 0.04,-0.04 0.06,-0.05l-0.11 0 -0.01 0.11z"/>
  <path class="fil0" d="M0.06 0.05c0,0.01 -0.01,0.01 -0.01,0 0,0 -0.01,-0.01 0.01,0zm0.01 0.02c0.01,-0.02 0.01,-0.02 -0.01,-0.04 -0.01,0 -0.03,0 -0.03,0.02 0,0.02 0.02,0.03 0.04,0.02z"/>
  <path class="fil0" d="M0.18 0.13l-0.01 -0.01c0,0 0.01,0 0.01,0l0 0c0,0 0,0 0,0 0,0 0,0 0,0l-0.01 0c0,0.02 0,0.01 0.01,0.01z"/>
  <path class="fil0" d="M0.17 0.07l0 -0.01c0,0 0,0 0.01,0 0,0 0,0 0,0l0 0 -0.01 0c0,0.02 0,0.01 0,0.01z"/>
  <path class="fil0" d="M0.18 0.1c0,0 0,0 0,0 0,0 0,0 0,0l0 0c-0.01,0 -0.01,0 -0.01,0l0 -0.01c0,0 0,0 0,0.01 0,0 0,0 0,0l0.01 0z"/>
  <path class="fil0" d="M0.18 0.05l-0.01 -0.01 0 -0.01c0,0 0,0 0,0.01 0,0 0,0 0,0.01l0.01 0z"/>
 </g>
</svg>
