<?xml version="1.0" encoding="UTF-8"?>
<!DOCTYPE svg PUBLIC "-//W3C//DTD SVG 1.1//EN" "http://www.w3.org/Graphics/SVG/1.1/DTD/svg11.dtd">
<!-- Creator: CorelDRAW 2020 (64 Bit) -->
<svg xmlns="http://www.w3.org/2000/svg" xml:space="preserve" width="55px" height="41px" version="1.1" style="shape-rendering:geometricPrecision; text-rendering:geometricPrecision; image-rendering:optimizeQuality; fill-rule:evenodd; clip-rule:evenodd"
viewBox="0 0 1.76 1.31"
 xmlns:xlink="http://www.w3.org/1999/xlink"
 xmlns:xodm="http://www.corel.com/coreldraw/odm/2003">
 <defs>
  <style type="text/css">
   <![CDATA[
    .fil0 {fill:white}
   ]]>
  </style>
 </defs>
 <g id="Camada_x0020_1">
  <metadata id="CorelCorpID_0Corel-Layer"/>
  <g id="_1668527808688">
   <path class="fil0" d="M0.16 0.39c0.09,-0.02 0.68,-0.3 0.72,-0.3 0.01,0 0.31,0.13 0.35,0.15l0.37 0.15 -0.18 0.08c-0.06,0.02 -0.12,0.05 -0.18,0.08 -0.05,0.02 -0.33,0.14 -0.36,0.14 -0.02,0 -0.46,-0.18 -0.54,-0.22 -0.03,-0.01 -0.06,-0.02 -0.09,-0.04 -0.02,-0.01 -0.07,-0.02 -0.09,-0.04zm-0.16 -0.01l0 0.03c0.04,0.04 0.35,0.16 0.43,0.19 0.05,0.03 0.42,0.19 0.45,0.19 0.02,0 0.57,-0.24 0.67,-0.28 0.06,-0.03 0.17,-0.06 0.21,-0.1l0 -0.03c-0.03,-0.03 -0.06,-0.04 -0.1,-0.06l-0.33 -0.14c-0.06,-0.02 -0.42,-0.18 -0.45,-0.18 -0.03,0 -0.58,0.24 -0.67,0.28 -0.05,0.02 -0.18,0.06 -0.21,0.1z"/>
   <path class="fil0" d="M0 0.91l0 0.03c0.04,0.04 0.04,0.02 0.1,0.05l0.33 0.14c0.06,0.03 0.42,0.18 0.45,0.18 0.02,0.01 0.65,-0.26 0.77,-0.32 0.02,0 0.04,-0.01 0.06,-0.02 0.03,-0.01 0.03,-0.01 0.05,-0.03l0 -0.03c-0.06,-0.06 -0.09,-0.01 -0.22,0.04l-0.66 0.27 -0.77 -0.32c-0.06,-0.02 -0.07,-0.04 -0.11,0.01z"/>
   <path class="fil0" d="M0 0.64l0 0.03c0.05,0.05 0.15,0.08 0.22,0.11 0.1,0.04 0.64,0.27 0.66,0.27 0.03,0 0.39,-0.16 0.45,-0.18 0.08,-0.04 0.38,-0.15 0.43,-0.2l0 -0.03c-0.05,-0.04 -0.05,-0.03 -0.11,0l-0.33 0.14c-0.06,0.02 -0.42,0.18 -0.44,0.18l-0.66 -0.28c-0.15,-0.06 -0.17,-0.09 -0.22,-0.04z"/>
  </g>
 </g>
</svg>
