<?xml version="1.0" encoding="UTF-8"?>
<!DOCTYPE svg PUBLIC "-//W3C//DTD SVG 1.1//EN" "http://www.w3.org/Graphics/SVG/1.1/DTD/svg11.dtd">
<!-- Creator: CorelDRAW 2020 (64 Bit) -->
<svg xmlns="http://www.w3.org/2000/svg" xml:space="preserve" width="30.8286mm" height="21.2796mm" version="1.1" style="shape-rendering:geometricPrecision; text-rendering:geometricPrecision; image-rendering:optimizeQuality; fill-rule:evenodd; clip-rule:evenodd"
viewBox="0 0 713.19 492.28"
 xmlns:xlink="http://www.w3.org/1999/xlink"
 xmlns:xodm="http://www.corel.com/coreldraw/odm/2003">
 <defs>
  <style type="text/css">
   <![CDATA[
    .fil59 {fill:#FEFEFE}
    .fil55 {fill:#6CACA9}
    .fil54 {fill:#9AD2C9}
    .fil53 {fill:white}
    .fil9 {fill:#FEFEFE;fill-rule:nonzero}
    .fil7 {fill:#EFEFEF;fill-rule:nonzero}
    .fil8 {fill:#E5E6E5;fill-rule:nonzero}
    .fil5 {fill:#E0E1E0;fill-rule:nonzero}
    .fil45 {fill:#DBF0EE;fill-rule:nonzero}
    .fil6 {fill:#D9DAD9;fill-rule:nonzero}
    .fil16 {fill:#D2D4D4;fill-rule:nonzero}
    .fil50 {fill:#C2C4C4;fill-rule:nonzero}
    .fil26 {fill:#BBE3E3;fill-rule:nonzero}
    .fil44 {fill:#AFDEDD;fill-rule:nonzero}
    .fil24 {fill:#A8B8BB;fill-rule:nonzero}
    .fil40 {fill:#98D6D2;fill-rule:nonzero}
    .fil33 {fill:#95A0A2;fill-rule:nonzero}
    .fil14 {fill:#95A9AF;fill-rule:nonzero}
    .fil34 {fill:#94A7AB;fill-rule:nonzero}
    .fil36 {fill:#919FA2;fill-rule:nonzero}
    .fil41 {fill:#8ED2CE;fill-rule:nonzero}
    .fil23 {fill:#85D0CF;fill-rule:nonzero}
    .fil10 {fill:#6CC9C7;fill-rule:nonzero}
    .fil52 {fill:#6BC8C2;fill-rule:nonzero}
    .fil27 {fill:#637C84;fill-rule:nonzero}
    .fil20 {fill:#55C2B9;fill-rule:nonzero}
    .fil32 {fill:#617980;fill-rule:nonzero}
    .fil35 {fill:#576C72;fill-rule:nonzero}
    .fil37 {fill:#4A5F66;fill-rule:nonzero}
    .fil39 {fill:#465C62;fill-rule:nonzero}
    .fil21 {fill:#3D4E53;fill-rule:nonzero}
    .fil11 {fill:#42616A;fill-rule:nonzero}
    .fil29 {fill:#405D66;fill-rule:nonzero}
    .fil22 {fill:#3A4A4F;fill-rule:nonzero}
    .fil30 {fill:#3D5A63;fill-rule:nonzero}
    .fil38 {fill:#3B535B;fill-rule:nonzero}
    .fil17 {fill:#39545B;fill-rule:nonzero}
    .fil25 {fill:#384E55;fill-rule:nonzero}
    .fil28 {fill:#326166;fill-rule:nonzero}
    .fil4 {fill:#00B3A9;fill-rule:nonzero}
    .fil31 {fill:#1E7C7D;fill-rule:nonzero}
    .fil43 {fill:#2C3C43;fill-rule:nonzero}
    .fil19 {fill:#00B09F;fill-rule:nonzero}
    .fil47 {fill:#009D89;fill-rule:nonzero}
    .fil46 {fill:#007364;fill-rule:nonzero}
    .fil2 {fill:black;fill-rule:nonzero}
    .fil49 {fill:#074669;fill-rule:nonzero}
    .fil51 {fill:#0A6092;fill-rule:nonzero}
    .fil48 {fill:#0B9AC2;fill-rule:nonzero}
    .fil12 {fill:#333333;fill-rule:nonzero}
    .fil3 {fill:#333333;fill-rule:nonzero}
    .fil1 {fill:#4D4D4D;fill-rule:nonzero}
    .fil56 {fill:#5C1212;fill-rule:nonzero}
    .fil57 {fill:#731616;fill-rule:nonzero}
    .fil13 {fill:#791D1F;fill-rule:nonzero}
    .fil58 {fill:#931D1D;fill-rule:nonzero}
    .fil0 {fill:#B3B3B3;fill-rule:nonzero}
    .fil42 {fill:#B3B3B3;fill-rule:nonzero}
    .fil15 {fill:#B92D2F;fill-rule:nonzero}
    .fil18 {fill:#D55151;fill-rule:nonzero}
   ]]>
  </style>
 </defs>
 <g id="Camada_x0020_1">
  <metadata id="CorelCorpID_0Corel-Layer"/>
  <g id="_2412666288496">
   <path class="fil0" d="M361.44 468.3c1.17,0 2.34,-0.26 3.24,-0.77l167.67 -98.53 -62.27 -36.46 -169.88 97.65c-1.8,1.04 -1.8,2.72 -0,3.75l57.99 33.57c0.9,0.52 2.08,0.78 3.26,0.78z"/>
   <path class="fil1" d="M532.48 359.04c0,-0.68 -0.45,-1.36 -1.34,-1.88l-54.48 -31.45c-1.79,-1.04 -4.7,-1.03 -6.5,0l-166.22 96.13c-0.9,0.52 -1.34,1.2 -1.34,1.88 0,0.68 0,5.04 0,5.71 -0,0.68 0.45,1.36 1.35,1.88l54.45 31.44c1.8,1.03 4.71,1.03 6.5,-0.01l166.25 -95.97c0.89,-0.51 1.34,-1.19 1.34,-1.87 0,-0.68 0,-5.19 0,-5.86z"/>
   <path class="fil2" d="M358.39 456.9l-54.45 -31.3c-1.8,-1.03 -1.8,-2.71 -0,-3.75l166.22 -96.13c1.8,-1.03 4.7,-1.03 6.5,0l54.48 31.45c1.79,1.04 1.79,2.72 0,3.75l-166.25 95.97c-1.8,1.04 -4.7,1.04 -6.5,0.01z"/>
   <path class="fil3" d="M361.43 457.67l0 5.84c-1.1,-0.02 -2.2,-0.28 -3.05,-0.75l-54.43 -31.44c-0.9,-0.53 -1.35,-1.2 -1.35,-1.88l0 -5.73c0,0.67 0.45,1.35 1.35,1.88l54.43 31.32c0.85,0.47 1.95,0.74 3.05,0.76z"/>
   <path class="fil4" d="M320.19 422.89l-0.04 -0.07 -2.29 -1.35 -4.57 2.63 2.35 1.45 4.54 -2.62 0.01 -0.04zm7.46 -4.31l-0.04 -0.07 -2.29 -1.35 -4.56 2.64 2.34 1.44 4.54 -2.62 0.01 -0.04zm4.95 11.48l-0.04 -0.07 -5.39 -3.11 -4.56 2.63 5.43 3.22 4.55 -2.63 0.01 -0.04zm2.52 -15.79l-0.04 -0.07 -2.29 -1.35 -4.56 2.63 2.34 1.44 4.54 -2.62 0.01 -0.04zm4.95 11.48l-0.04 -0.07 -5.39 -3.11 -4.56 2.63 5.43 3.22 4.55 -2.63 0.01 -0.04zm2.52 -15.79l-0.04 -0.07 -2.29 -1.35 -4.56 2.63 2.35 1.45 4.54 -2.62 0.01 -0.04zm4.95 11.47l-0.04 -0.06 -5.39 -3.12 -4.56 2.63 5.43 3.22 4.55 -2.63 0.01 -0.04zm0.98 9.19l-0.04 -0.07 -5.39 -3.12 -4.56 2.64 5.42 3.22 4.56 -2.63 0.01 -0.04zm0.97 9.18l-0.04 -0.07 -13.83 -7.99 -4.56 2.63 13.86 8.09 4.56 -2.63 0.01 -0.04zm4.32 -33.81l-0.04 -0.07 -5.39 -3.11 -4.56 2.63 5.43 3.22 4.56 -2.63 0.01 -0.04zm1.21 11.13l-0.04 -0.07 -5.39 -3.11 -4.56 2.64 5.43 3.22 4.55 -2.63 0.01 -0.04zm0.97 9.18l-0.04 -0.07 -5.39 -3.11 -4.56 2.63 5.43 3.22 4.56 -2.63 0.01 -0.04zm0.97 9.18l-0.04 -0.07 -5.39 -3.11 -4.56 2.63 5.42 3.22 4.56 -2.63 0.01 -0.04zm4.32 -33.81l-0.04 -0.07 -5.39 -3.11 -4.56 2.63 5.43 3.22 4.56 -2.63 0.01 -0.04zm2.18 20.32l-0.04 -0.07 -5.4 -3.12 -4.56 2.63 5.43 3.22 4.55 -2.63 0.01 -0.04zm0.6 -10.09l-0.04 -0.07 -5.39 -3.11 -4.57 2.63 5.43 3.22 4.56 -2.63 0.01 -0.04zm0.37 19.28l-0.04 -0.07 -5.39 -3.12 -4.56 2.64 5.42 3.22 4.56 -2.63 0.01 -0.04zm0.97 9.18l-0.04 -0.07 -5.39 -3.11 -4.56 2.63 5.43 3.22 4.56 -2.63 0 -0.04zm0.97 9.19l-0.04 -0.07 -13.83 -7.98 -4.56 2.63 13.86 8.09 4.56 -2.63 0.01 -0.04zm2.37 -52.18l-0.03 -0.07 -5.39 -3.11 -4.56 2.64 5.43 3.22 4.56 -2.63 0.01 -0.04zm2.78 10.23l-0.03 -0.07 -5.39 -3.11 -4.57 2.63 5.43 3.22 4.55 -2.63 0.01 -0.04zm0.37 19.27l-0.04 -0.07 -5.39 -3.11 -4.56 2.63 5.42 3.22 4.56 -2.63 0.01 -0.04zm0.6 -10.09l-0.04 -0.07 -5.39 -3.11 -4.56 2.64 5.43 3.22 4.56 -2.63 0.01 -0.04zm0.37 19.28l-0.04 -0.07 -5.39 -3.11 -4.57 2.63 5.43 3.22 4.56 -2.63 0.01 -0.04zm0.97 9.18l-0.04 -0.07 -5.39 -3.11 -4.57 2.63 5.43 3.22 4.56 -2.63 0.01 -0.04zm4.03 -53.13l-0.04 -0.07 -5.39 -3.11 -4.56 2.64 5.42 3.22 4.56 -2.63 0.01 -0.04zm1.12 11.18l-0.04 -0.07 -5.39 -3.11 -4.56 2.64 5.43 3.22 4.56 -2.63 0.01 -0.04zm0.97 9.18l-0.04 -0.07 -5.39 -3.11 -4.56 2.63 5.43 3.22 4.56 -2.63 0.01 -0.04zm0.37 19.28l-0.03 -0.07 -5.39 -3.11 -4.57 2.64 5.43 3.22 4.56 -2.63 0.01 -0.04zm5 -43.95l-0.03 -0.07 -5.39 -3.11 -4.56 2.63 5.42 3.22 4.56 -2.63 0.01 -0.04zm2.1 20.36l-0.04 -0.07 -5.39 -3.11 -4.57 2.64 5.43 3.22 4.56 -2.63 0.01 -0.04zm1.34 28.46l-0.04 -0.07 -5.39 -3.12 -12.03 6.95 5.43 3.22 12.03 -6.94 0.01 -0.04zm2.79 -40.6l-0.04 -0.07 -5.39 -3.11 -8.1 4.68 5.43 3.22 8.09 -4.67 0.01 -0.04zm1.23 -12.54l-0.04 -0.07 -5.39 -3.11 -4.56 2.63 5.42 3.22 4.56 -2.63 0.01 -0.04zm4.04 38.73l-0.04 -0.07 -5.39 -3.11 -4.56 2.64 5.43 3.22 4.56 -2.63 0.01 -0.04zm0.97 9.19l-0.04 -0.07 -5.39 -3.11 -4.56 2.63 5.43 3.22 4.55 -2.63 0.01 -0.04zm1.22 -39.69l-0.04 -0.07 -5.39 -3.11 -4.57 2.63 5.43 3.22 4.55 -2.63 0.01 -0.04zm1.23 -12.54l-0.04 -0.07 -5.39 -3.11 -4.57 2.63 5.43 3.22 4.56 -2.63 0.01 -0.04zm4.46 19l-0.04 -0.07 -5.39 -3.11 -4.56 2.63 5.43 3.22 4.55 -2.63 0.01 -0.04zm0.56 28.92l-0.04 -0.07 -5.39 -3.11 -4.56 2.63 5.43 3.22 4.56 -2.63 0.01 -0.04zm1.22 -39.69l-0.04 -0.07 -5.39 -3.11 -4.57 2.63 5.43 3.22 4.55 -2.63 0.01 -0.04zm4.48 -14.41l-0.03 -0.07 -5.39 -3.11 -4.57 2.63 5.43 3.22 4.56 -2.63 0 -0.04zm0.22 31.2l-0.04 -0.07 -5.39 -3.12 -4.17 2.41c-0.29,0.17 -0.78,0.27 -1.32,0.27 -0.56,0 -1.06,-0.1 -1.38,-0.29l-7.08 -4.09 -5.35 3.09 13.86 8.09 10.85 -6.26 0.01 -0.04zm0.99 -10.32l-0.03 -0.07 -5.39 -3.11 -4.56 2.63 5.42 3.22 4.56 -2.63 0.01 -0.04zm0.56 28.91l-0.04 -0.07 -5.39 -3.12 -4.56 2.63 5.43 3.22 4.55 -2.63 0.01 -0.04zm1.22 -39.69l-0.04 -0.07 -5.39 -3.11 -4.56 2.63 5.43 3.22 4.55 -2.63 0.01 -0.04zm4.48 -14.41l-0.04 -0.07 -5.39 -3.11 -4.57 2.64 5.43 3.22 4.56 -2.63 0.01 -0.04zm0.22 31.19l-0.04 -0.07 -5.39 -3.11 -4.56 2.64 5.43 3.22 4.55 -2.63 0.01 -0.04zm0.99 -10.32l-0.04 -0.07 -5.39 -3.11 -4.56 2.63 5.43 3.22 4.56 -2.63 0.01 -0.04zm1.78 -10.77l-0.03 -0.07 -5.39 -3.11 -4.56 2.64 5.43 3.22 4.55 -2.63 0.01 -0.04zm1.74 28.24l-0.04 -0.07 -5.39 -3.11 -14.39 8.31 5.43 3.22 14.38 -8.31 0.01 -0.04zm1.36 8.96l-0.04 -0.07 -5.39 -3.12 -7.31 4.22 5.43 3.22 7.31 -4.22 0.01 -0.04zm1.38 -51.61l-0.04 -0.07 -5.39 -3.11 -4.57 2.63 5.43 3.22 4.56 -2.63 0.01 -0.04zm0.22 31.2l-0.04 -0.07 -5.4 -3.11 -4.56 2.64 5.43 3.22 4.55 -2.63 0.01 -0.04zm0.99 -10.32l-0.04 -0.07 -5.39 -3.11 -4.56 2.63 5.42 3.22 4.56 -2.63 0.01 -0.04zm1.78 -10.78l-0.04 -0.07 -5.39 -3.11 -4.56 2.63 5.43 3.22 4.55 -2.63 0.01 -0.04zm1.74 28.23l-0.04 -0.07 -5.39 -3.11 -4.56 2.63 5.43 3.22 4.56 -2.63 0.01 -0.04zm2.54 8.28l-0.03 -0.07 -5.39 -3.11 -5.74 3.32 5.43 3.22 5.74 -3.31 0 -0.04zm0.2 -50.93l-0.04 -0.07 -5.39 -3.11 -4.57 2.63 5.43 3.22 4.55 -2.63 0.01 -0.04zm0.22 31.2l-0.04 -0.07 -5.39 -3.11 -4.56 2.63 5.43 3.22 4.55 -2.63 0.01 -0.04zm0.99 -10.32l-0.04 -0.07 -5.39 -3.11 -4.56 2.64 5.42 3.22 4.56 -2.63 0.01 -0.04zm1.78 -10.77l-0.04 -0.07 -5.39 -3.11 -4.56 2.63 5.43 3.22 4.55 -2.63 0.01 -0.04zm1.74 28.23l-0.04 -0.07 -5.39 -3.11 -4.56 2.64 5.42 3.22 4.56 -2.63 0.01 -0.04zm2.96 -11.45l-0.04 -0.07 -5.39 -3.11 -4.56 2.63 5.43 3.22 4.55 -2.63 0.01 -0.04zm0.77 19.05l-0.04 -0.07 -5.39 -3.11 -5.74 3.32 5.42 3.22 5.73 -3.31 0.01 -0.04zm0.23 -29.37l-0.04 -0.07 -5.39 -3.11 -4.56 2.63 5.43 3.22 4.56 -2.63 0.01 -0.04zm1.78 -10.77l-0.04 -0.07 -5.39 -3.11 -4.56 2.64 5.43 3.22 4.55 -2.63 0.01 -0.04zm0.26 -11.98l-0.04 -0.07 -5.39 -3.11 -4.57 2.63 5.43 3.22 4.56 -2.63 0.01 -0.04zm1.47 40.21l-0.04 -0.07 -5.39 -3.11 -4.56 2.63 5.43 3.22 4.55 -2.63 0.01 -0.04zm2.96 -11.45l-0.04 -0.07 -5.39 -3.12 -4.56 2.64 5.43 3.22 4.55 -2.63 0.01 -0.04zm0.99 -10.32l-0.04 -0.07 -5.39 -3.11 -4.56 2.63 5.43 3.22 4.56 -2.63 0.01 -0.04zm0.95 28.69l-0.04 -0.07 -5.39 -3.12 -5.74 3.32 5.43 3.22 5.73 -3.31 0.01 -0.04zm0.82 -39.46l-0.04 -0.07 -5.39 -3.11 -4.56 2.63 5.43 3.22 4.56 -2.63 0.01 -0.04zm0.27 -11.98l-0.04 -0.07 -5.39 -3.11 -4.56 2.63 5.43 3.22 4.56 -2.63 0.01 -0.04zm1.47 40.21l-0.04 -0.07 -5.39 -3.11 -4.56 2.63 5.42 3.22 4.56 -2.63 0.01 -0.04zm2.96 -11.45l-0.04 -0.07 -5.39 -3.11 -4.56 2.63 5.43 3.22 4.55 -2.63 0.01 -0.04zm0.99 -10.32l-0.04 -0.07 -5.39 -3.11 -4.56 2.63 5.43 3.22 4.55 -2.63 0.01 -0.04zm1.78 -10.77l-0.04 -0.07 -5.39 -3.11 -4.56 2.63 5.43 3.22 4.55 -2.63 0.01 -0.04zm0.26 -11.98l-0.04 -0.07 -5.39 -3.11 -4.57 2.64 5.43 3.22 4.56 -2.63 0.01 -0.04zm1.47 40.21l-0.04 -0.07 -5.39 -3.12 -4.56 2.64 5.43 3.22 4.55 -2.63 0.01 -0.04zm2.96 -11.45l-0.04 -0.07 -5.39 -3.11 -4.56 2.63 5.43 3.22 4.55 -2.63 0.01 -0.04zm0.99 -10.32l-0.04 -0.07 -5.39 -3.11 -4.56 2.63 5.43 3.22 4.56 -2.63 0.01 -0.04zm1.78 -10.77l-0.04 -0.07 -5.39 -3.11 -4.56 2.64 5.43 3.22 4.55 -2.63 0.01 -0.04zm0.26 -11.98l-0.04 -0.07 -5.39 -3.11 -4.56 2.63 5.43 3.22 4.56 -2.63 0.01 -0.04zm1.47 40.21l-0.04 -0.07 -5.39 -3.11 -4.56 2.64 5.42 3.22 4.56 -2.63 0.01 -0.04zm2.96 -11.45l-0.04 -0.07 -5.39 -3.12 -4.56 2.64 5.43 3.22 4.55 -2.63 0.01 -0.04zm0.99 -10.32l-0.04 -0.07 -5.39 -3.11 -4.57 2.63 5.43 3.22 4.56 -2.63 0.01 -0.04zm1.78 -10.78l-0.04 -0.07 -5.39 -3.11 -4.56 2.63 5.42 3.22 4.56 -2.63 0.01 -0.04zm1.74 28.23l-0.04 -0.07 -5.39 -3.11 -4.56 2.63 5.42 3.22 4.56 -2.63 0.01 -0.04zm2.95 -42.77l-0.04 -0.07 -5.39 -3.11 -5.74 3.32 5.43 3.22 5.73 -3.32 0.01 -0.04zm0.01 31.32l-0.04 -0.07 -5.39 -3.12 -4.56 2.63 5.42 3.22 4.56 -2.63 0.01 -0.04zm0.99 -10.32l-0.04 -0.07 -5.39 -3.11 -4.56 2.63 5.43 3.22 4.56 -2.63 0.01 -0.04zm1.78 -10.77l-0.04 -0.07 -5.39 -3.11 -4.56 2.63 5.42 3.22 4.56 -2.63 0.01 -0.04zm1.74 28.23l-0.04 -0.07 -5.39 -3.11 -4.56 2.63 5.43 3.22 4.55 -2.63 0.01 -0.04zm2.96 -11.45l-0.04 -0.07 -5.39 -3.11 -4.56 2.63 5.43 3.22 4.55 -2.63 0.01 -0.04zm1 -10.32l-0.04 -0.07 -5.39 -3.11 -4.56 2.63 5.43 3.22 4.56 -2.63 0.01 -0.04zm1.77 -10.77l-0.04 -0.07 -5.39 -3.11 -4.56 2.63 5.42 3.22 4.56 -2.63 0.01 -0.04zm1.74 28.24l-0.04 -0.07 -5.39 -3.11 -4.56 2.64 5.42 3.22 4.56 -2.63 0.01 -0.04zm2.95 -11.45l-0.04 -0.07 -5.39 -3.11 -4.56 2.63 5.42 3.22 4.56 -2.63 0.01 -0.04zm1.55 18.6l-0.04 -0.07 -5.39 -3.11 -41.51 23.96 5.43 3.22 41.5 -23.96 0.01 -0.04zm2.19 -30.5l-0.04 -0.07 -5.39 -3.11 -7.31 4.22 5.42 3.22 7.31 -4.22 0.01 -0.04zm0.77 19.05l-0.04 -0.07 -5.39 -3.11 -4.56 2.63 5.42 3.22 4.56 -2.63 0.01 -0.04zm5.69 6.46l-0.04 -0.07 -5.39 -3.11 -5.75 3.32 5.43 3.22 5.73 -3.32 0.01 -0.04zm1.78 -10.77l-0.04 -0.07 -5.39 -3.11 -4.56 2.63 5.43 3.22 4.56 -2.63 0.01 -0.04zm0.21 -9.87l-0.04 -0.07 -5.39 -3.11 -9.28 5.36 5.42 3.22 9.28 -5.36 0 -0.04zm6.66 15.64l-0.04 -0.07 -5.39 -3.11 -5.74 3.31 5.43 3.22 5.73 -3.31 0.01 -0.04zm1.78 -10.77l-0.04 -0.07 -5.39 -3.11 -5.74 3.32 5.43 3.22 5.74 -3.31 0.01 -0.04zm8.44 4.87l-0.04 -0.07 -5.39 -3.11 -7.31 4.22 5.42 3.22 7.31 -4.22 0.01 -0.04z"/>
   <path class="fil5" d="M310.63 392.52l36.42 -21.06c3.75,-2.17 5.63,-5.01 5.64,-7.84 0,-2.84 0.01,-5.07 0.01,-5.07l-34.27 -19.45c-2,-1.16 -3.63,-3.97 -3.63,-6.28l0 -44.9 -63.6 36.75 -0 44.9c0,2.31 1.62,5.12 3.63,6.28l28.62 16.67c7.51,4.34 19.68,4.33 27.19,0z"/>
   <path class="fil6" d="M266.47 377.52l0 5.04 -11.65 -6.72c-1.99,-1.15 -3.62,-3.96 -3.62,-6.28l0 -44.89 12.12 -6.99c0.25,3.07 0.52,6.26 0.78,9.35l-8.5 4.92 0 35.08c0,2.32 1.61,5.13 3.62,6.28l7.26 4.21z"/>
   <path class="fil7" d="M255.58 367.05c0,2.31 1.62,5.12 3.63,6.28l24.23 14.13c7.51,4.34 19.68,4.34 27.19,0l36.43 -21.05c7.51,-4.33 7.51,-11.36 0,-15.69l-24.25 -14.14c-2,-1.15 -3.63,-3.97 -3.63,-6.28l0 -35.08 -63.61 36.75 0 35.09z"/>
   <path class="fil8" d="M330.2 340.84l0 -0.01 -7.38 -4.26c-2,-1.15 -3.63,-3.97 -3.63,-6.28l0 -35.08 -63.61 36.75 0 35.09c0,2.31 1.62,5.12 3.63,6.28l7.25 4.19 63.74 -36.67z"/>
   <path class="fil8" d="M352.69 358.55c0,0 0,2.22 0,5.07 0,2.85 -1.89,5.67 -5.64,7.85l-36.42 21.05c-3.6,2.09 -8.27,3.14 -12.98,3.22l0 -5.05c4.71,-0.06 9.38,-1.15 12.98,-3.22l36.42 -21.07c3.75,-2.16 5.64,-5 5.64,-7.85z"/>
   <path class="fil3" d="M153.45 415.48c2.35,1.36 6.28,1.28 8.78,-0.16 31.27,-18.05 214.72,-123.97 245.99,-142.02 2.5,-1.45 4.53,-4.96 4.53,-7.85l0 -215.31c0,-2.89 -1.9,-6.33 -4.25,-7.69 -2.35,-1.35 -6.28,-1.28 -8.78,0.16l-245.99 142.02c-2.5,1.45 -4.53,4.96 -4.53,7.85l-0 215.31c0,2.89 1.9,6.33 4.25,7.69z"/>
   <path class="fil2" d="M162.23 415.32l245.99 -142.02c2.5,-1.45 4.53,-4.96 4.53,-7.85l0 -215.32c0,-2.89 -2.03,-4.06 -4.53,-2.61l-245.99 142.02c-2.51,1.44 -4.53,4.96 -4.53,7.85l-0 215.31c0,2.89 2.03,4.06 4.53,2.62z"/>
   <path class="fil6" d="M161.57 416.21c-2.51,1.11 -5.99,1.07 -8.12,-0.17 -2.34,-1.36 -4.25,-4.79 -4.25,-7.7l0 -24.21 8.5 4.92 0 24.21c0,2.64 1.67,3.83 3.87,2.95z"/>
   <path class="fil9" d="M157.7 389.04l0 24.21c0,2.89 2.03,4.06 4.53,2.62l245.99 -142.02c2.5,-1.45 4.53,-4.96 4.53,-7.85l0 -24.21 -255.06 147.25z"/>
   <path class="fil4" d="M166.2 370.62l0 -170.41c0,-1.73 1.21,-3.84 2.72,-4.71l232.61 -134.3c1.5,-0.87 2.72,-0.16 2.72,1.57l0.01 170.42c0,1.73 -1.21,3.84 -2.72,4.71l-232.62 134.29c-1.5,0.87 -2.72,0.16 -2.72,-1.57z"/>
   <path class="fil10" d="M167.71 372.56c0.37,0 0.78,-0.12 1.21,-0.37l232.62 -134.29c1.5,-0.87 2.72,-2.98 2.72,-4.71l-0.01 -170.42c0,-1.23 -0.61,-1.94 -1.5,-1.94 -0.37,0 -0.78,0.12 -1.21,0.37l-29 16.74 0 137.11c0,2.78 -1.95,6.14 -4.34,7.52l-201.99 116.62 -0 31.43c0,1.23 0.61,1.94 1.5,1.94z"/>
   <path class="fil11" d="M285.23 324.68c-2.35,1.36 -4.25,4.65 -4.25,7.36 0,2.71 1.9,3.81 4.25,2.45 2.35,-1.36 4.25,-4.65 4.25,-7.36 0,-2.71 -1.9,-3.81 -4.25,-2.45z"/>
   <path class="fil12" d="M159.04 192.9c-0.82,1.43 -1.32,3.04 -1.34,4.48l0 191.66 -8.5 -4.92 0 -191.64c0,-1.45 0.53,-3.06 1.34,-4.48l8.5 4.9z"/>
   <path class="fil11" d="M372.51 5.68l-0.07 -0.4 -0.01 -0.09 -0.1 -0.38 -0.26 -0.55 -0.14 -0.23 -0.13 -0.15 -0.28 -0.28 -0.03 -0.03 -0.37 -0.21c-0.78,-0.37 -1.79,-0.27 -2.92,0.37l-287.07 165.67c-2.39,1.38 -4.34,4.75 -4.34,7.52l0 207.77 0 0.04 0 0.95c0,1.18 0.66,2.12 1.56,2.61l0.18 0.12 0.23 0.13 0.37 0.13 0.56 0.07c0.44,0.01 0.94,-0.13 1.43,-0.41l0.12 -0.06 0.01 -0 4.14 -2.39 282.81 -163.28c2.39,-1.38 4.34,-4.74 4.34,-7.52l0 -208.83 -0.03 -0.54z"/>
   <path class="fil4" d="M371.11 3.35c-0.78,-0.37 -1.79,-0.27 -2.92,0.37l-287.07 165.67c-2.39,1.38 -4.34,4.75 -4.34,7.52l0 14.18 -5.54 -3.25 0 -14.08c0,-2.76 1.94,-6.12 4.33,-7.5l287.09 -165.67c1.24,-0.72 2.35,-0.74 3.15,-0.26 0.78,0.47 4.39,2.54 5.31,3.02z"/>
   <path class="fil13" d="M372.52 6.19c-0.01,-2.74 -1.95,-3.84 -4.33,-2.47l-287.07 165.67c-2.39,1.38 -4.34,4.74 -4.34,7.51l0 14.18 295.74 -170.66 0 -14.24z"/>
   <path class="fil9" d="M73.78 167.73c0.55,-0.6 1.15,-1.11 1.79,-1.48l287.09 -165.67c0.66,-0.39 1.29,-0.57 1.85,-0.59 -0.56,0.01 -1.19,0.2 -1.85,0.58l-287.08 165.67c-0.64,0.37 -1.24,0.88 -1.79,1.48zm297.27 -164.41c-0.98,-0.53 -4.48,-2.52 -5.24,-2.99 -0.16,-0.09 -0.33,-0.17 -0.5,-0.22 0.18,0.06 0.35,0.13 0.5,0.23 0.77,0.46 4.23,2.45 5.24,2.99z"/>
   <path class="fil14" d="M78.3 172.22c0.76,-1.18 1.74,-2.2 2.82,-2.82l69.74 -40.25 217.33 -125.42c0.33,-0.19 0.65,-0.33 0.96,-0.43 -0.31,0.09 -0.63,0.24 -0.96,0.43l-287.07 165.67c-1.07,0.62 -2.06,1.64 -2.82,2.83z"/>
   <path class="fil15" d="M78.08 172.59c0.07,-0.12 0.15,-0.25 0.23,-0.37 0.76,-1.19 1.74,-2.21 2.82,-2.83l287.07 -165.67c0.33,-0.19 0.65,-0.33 0.96,-0.43 0.34,-0.11 0.67,-0.16 0.97,-0.16 0.27,0 0.52,0.04 0.74,0.12 0.06,0.02 0.13,0.05 0.19,0.07 -0.01,-0 -0.01,-0.01 -0.02,-0.01 -1.01,-0.54 -4.48,-2.53 -5.24,-2.99 -0.16,-0.09 -0.32,-0.17 -0.5,-0.23 -0.23,-0.07 -0.47,-0.1 -0.73,-0.1 -0.02,0 -0.04,0 -0.07,0 -0.56,0.02 -1.18,0.2 -1.85,0.59l-287.09 165.67c-0.64,0.37 -1.24,0.88 -1.79,1.48 -0.46,0.51 -0.87,1.08 -1.22,1.69l0 0 5.52 3.17z"/>
   <path class="fil13" d="M78.08 172.59c0.78,-1.34 1.86,-2.51 3.04,-3.2l69.74 -40.25 -69.74 40.25c-1.07,0.62 -2.06,1.64 -2.82,2.82 -0.08,0.12 -0.15,0.25 -0.23,0.37l0 0zm293.02 -169.25c-0.01,-0 -0.02,-0.01 -0.03,-0.02 -0.06,-0.03 -0.13,-0.05 -0.19,-0.07 0.08,0.03 0.15,0.06 0.22,0.09z"/>
   <path class="fil16" d="M76.78 191.08l0 -14.18 0 14.18 -5.54 -3.25 0 -14.08c0,-0.38 0.04,-0.78 0.11,-1.19 -0.07,0.4 -0.11,0.8 -0.11,1.18l-0 14.08 4.44 2.6 1.11 0.65z"/>
   <path class="fil17" d="M76.79 191.08l0 0 -0 -14.18c0,-1.13 0.33,-2.37 0.88,-3.52 -0.55,1.15 -0.88,2.39 -0.88,3.52l0 14.18 0.01 0z"/>
   <path class="fil18" d="M76.78 191.08l0 -14.18c0,-1.13 0.33,-2.37 0.88,-3.52 0.12,-0.26 0.26,-0.52 0.41,-0.78l-5.51 -3.19c-0.59,1 -1.02,2.09 -1.21,3.15 -0.07,0.4 -0.11,0.8 -0.11,1.19l0 14.08 5.54 3.25z"/>
   <path class="fil19" d="M76.79 191.08l0 -14.18c0,-1.41 0.49,-2.94 1.3,-4.31l-0 -0c-0,0.01 -0,0.01 -0.01,0.02l-0 -0c-0.15,0.25 -0.28,0.51 -0.41,0.78 -0.55,1.15 -0.88,2.39 -0.88,3.52l0 14.18z"/>
   <path class="fil20" d="M78.07 172.61c0,-0 0,-0.01 0.01,-0.02l-5.52 -3.17 5.51 3.19z"/>
   <path class="fil20" d="M78.07 172.61c0,-0 0.01,-0.01 0.01,-0.02l-0 -0c-0,0.01 -0.01,0.01 -0.01,0.02l0 0z"/>
   <path class="fil2" d="M86.56 172.39c-1.35,0.78 -2.45,3.1 -2.45,5.19 0,2.08 1.1,3.14 2.45,2.36 1.35,-0.78 2.45,-3.1 2.45,-5.19 0,-2.08 -1.1,-3.14 -2.45,-2.36z"/>
   <path class="fil2" d="M95.38 167.28c-1.35,0.78 -2.45,3.1 -2.45,5.19 0,2.08 1.1,3.14 2.45,2.36 1.35,-0.78 2.45,-3.1 2.45,-5.19 0,-2.08 -1.1,-3.14 -2.45,-2.36z"/>
   <path class="fil2" d="M104.2 162.18c-1.35,0.78 -2.45,3.1 -2.45,5.19 0,2.08 1.1,3.14 2.45,2.36 1.35,-0.78 2.45,-3.1 2.45,-5.19 0,-2.08 -1.1,-3.14 -2.45,-2.36z"/>
   <polygon class="fil21" points="71.23,263.82 76.78,260.63 76.78,191.08 75.67,190.43 71.23,187.85 71.23,187.83 "/>
   <polygon class="fil22" points="75.67,190.43 71.23,187.83 71.23,187.85 "/>
   <path class="fil4" d="M284.59 94.37l-60.52 34.88c-0.85,0.49 -1.54,1.63 -1.54,2.56 0,0.92 0.69,1.27 1.54,0.78l60.52 -34.88c0.85,-0.49 1.54,-1.64 1.54,-2.56 0,-0.92 -0.69,-1.27 -1.54,-0.78z"/>
   <path class="fil5" d="M261.47 161.13l-22.94 13.19c-0.85,0.49 -1.54,1.64 -1.54,2.56 0,0.92 0.69,1.27 1.54,0.78l22.94 -13.19c0.85,-0.49 1.54,-1.64 1.54,-2.56 0,-0.92 -0.69,-1.27 -1.54,-0.78z"/>
   <path class="fil5" d="M261.47 174.49l-22.94 13.19c-0.85,0.49 -1.54,1.64 -1.54,2.56 0,0.92 0.69,1.27 1.54,0.78l22.94 -13.19c0.85,-0.49 1.54,-1.64 1.54,-2.56 0,-0.92 -0.69,-1.27 -1.54,-0.78z"/>
   <path class="fil4" d="M218.1 132.69l-121.17 69.79c-0.85,0.49 -1.54,1.64 -1.54,2.56 0,0.92 0.69,1.27 1.54,0.78l121.17 -69.79c0.85,-0.49 1.54,-1.64 1.54,-2.56 0,-0.93 -0.68,-1.27 -1.54,-0.78z"/>
   <path class="fil4" d="M260.97 254.77l-36.9 21.35c-0.85,0.49 -1.54,1.64 -1.54,2.56 0,0.92 0.69,1.27 1.54,0.78l36.9 -21.35c0.85,-0.49 1.54,-1.64 1.54,-2.56 0,-0.92 -0.69,-1.27 -1.54,-0.78z"/>
   <path class="fil4" d="M218.1 279.56l-121.17 69.87c-0.85,0.49 -1.54,1.64 -1.54,2.56 0,0.92 0.69,1.27 1.54,0.78l121.17 -69.87c0.85,-0.49 1.54,-1.64 1.54,-2.56 0,-0.92 -0.68,-1.27 -1.54,-0.78z"/>
   <path class="fil4" d="M284.59 107.75l-30.49 17.51c-0.85,0.49 -1.54,1.64 -1.54,2.56 0,0.92 0.69,1.27 1.54,0.78l30.49 -17.52c0.85,-0.49 1.54,-1.64 1.54,-2.56 0,-0.92 -0.69,-1.27 -1.54,-0.78z"/>
   <path class="fil23" d="M253.38 128.83c0.22,0 0.46,-0.07 0.72,-0.22l30.49 -17.52c0.85,-0.49 1.54,-1.64 1.54,-2.56 0,-0.64 -0.33,-1 -0.81,-1 -0.22,0 -0.46,0.07 -0.73,0.22l-30.49 17.51c-0.85,0.49 -1.54,1.64 -1.54,2.56 0,0.64 0.33,1 0.82,1z"/>
   <path class="fil4" d="M284.59 121.08l-14.26 8.23c-0.85,0.49 -1.54,1.63 -1.54,2.56 0,0.92 0.69,1.27 1.54,0.78l14.26 -8.22c0.85,-0.49 1.54,-1.64 1.54,-2.56 0,-0.92 -0.69,-1.27 -1.54,-0.78z"/>
   <path class="fil23" d="M269.61 132.87c0.22,0 0.46,-0.07 0.72,-0.22l14.26 -8.22c0.85,-0.49 1.54,-1.64 1.54,-2.56 0,-0.64 -0.33,-1 -0.81,-1 -0.22,0 -0.46,0.07 -0.73,0.22l-14.26 8.23c-0.85,0.49 -1.54,1.63 -1.54,2.56 0,0.64 0.33,1 0.82,1z"/>
   <path class="fil4" d="M284.59 147.78l-14.26 8.23c-0.85,0.49 -1.54,1.64 -1.54,2.56 0,0.92 0.69,1.27 1.54,0.78l14.26 -8.22c0.85,-0.49 1.54,-1.64 1.54,-2.56 0,-0.92 -0.69,-1.27 -1.54,-0.78z"/>
   <path class="fil23" d="M269.61 159.57c0.22,0 0.46,-0.07 0.72,-0.22l14.26 -8.22c0.85,-0.49 1.54,-1.64 1.54,-2.56 0,-0.64 -0.33,-1 -0.82,-1 -0.22,0 -0.46,0.07 -0.72,0.22l-14.26 8.23c-0.85,0.49 -1.54,1.64 -1.54,2.56 0,0.64 0.33,1 0.82,1z"/>
   <path class="fil4" d="M284.59 161.14l-14.26 8.22c-0.85,0.49 -1.54,1.64 -1.54,2.56 0,0.92 0.69,1.27 1.54,0.78l14.26 -8.23c0.85,-0.49 1.54,-1.63 1.54,-2.56 0,-0.92 -0.69,-1.27 -1.54,-0.78z"/>
   <path class="fil23" d="M269.61 172.92c0.22,0 0.46,-0.07 0.72,-0.22l14.26 -8.23c0.85,-0.49 1.54,-1.63 1.54,-2.56 0,-0.64 -0.33,-1 -0.81,-1 -0.22,0 -0.46,0.07 -0.73,0.22l-14.26 8.22c-0.85,0.49 -1.54,1.64 -1.54,2.56 0,0.64 0.33,1 0.82,1z"/>
   <path class="fil4" d="M248.14 128.72l-18.28 10.59c-0.85,0.49 -1.54,1.64 -1.54,2.56 0,0.92 0.69,1.27 1.54,0.78l18.28 -10.59c0.85,-0.49 1.54,-1.64 1.54,-2.56 0,-0.92 -0.69,-1.27 -1.54,-0.78z"/>
   <path class="fil23" d="M229.13 142.87c0.22,0 0.46,-0.07 0.72,-0.22l18.28 -10.59c0.85,-0.49 1.54,-1.64 1.54,-2.56 0,-0.64 -0.33,-1 -0.82,-1 -0.22,0 -0.46,0.07 -0.72,0.22l-18.28 10.59c-0.85,0.49 -1.54,1.64 -1.54,2.56 0,0.64 0.33,1 0.82,1z"/>
   <path class="fil9" d="M219.86 225.24l-122.94 70.78c-0.85,0.49 -1.54,1.64 -1.54,2.56 0,0.92 0.69,1.27 1.54,0.78l122.94 -70.78c0.85,-0.49 1.54,-1.64 1.54,-2.56 0,-0.92 -0.69,-1.27 -1.54,-0.78z"/>
   <path class="fil9" d="M115.21 272.06l-18.28 10.59c-0.85,0.49 -1.54,1.64 -1.54,2.56 0,0.92 0.69,1.27 1.54,0.78l18.28 -10.59c0.85,-0.49 1.54,-1.64 1.54,-2.56 0,-0.92 -0.69,-1.27 -1.54,-0.78z"/>
   <path class="fil9" d="M244.12 197.83l-122.94 70.78c-0.85,0.49 -1.54,1.64 -1.54,2.56 0,0.92 0.69,1.27 1.54,0.78l122.94 -70.78c0.85,-0.49 1.54,-1.64 1.54,-2.56 0,-0.92 -0.69,-1.27 -1.54,-0.78z"/>
   <path class="fil4" d="M261.47 134.43l-30.49 17.51c-0.85,0.49 -1.54,1.64 -1.54,2.56 0,0.92 0.69,1.27 1.54,0.78l30.49 -17.51c0.85,-0.49 1.54,-1.64 1.54,-2.56 0,-0.93 -0.69,-1.27 -1.54,-0.78z"/>
   <path class="fil23" d="M230.26 155.51c0.22,0 0.46,-0.07 0.72,-0.22l30.49 -17.51c0.85,-0.49 1.54,-1.64 1.54,-2.56 0,-0.64 -0.33,-1 -0.81,-1 -0.22,0 -0.46,0.07 -0.72,0.22l-30.49 17.51c-0.85,0.49 -1.54,1.64 -1.54,2.56 0,0.64 0.33,1 0.82,1z"/>
   <path class="fil4" d="M225.01 155.4l-127.17 73.57c-0.85,0.49 -1.54,1.64 -1.54,2.56 0,0.92 0.69,1.27 1.54,0.78l127.17 -73.58c0.85,-0.49 1.54,-1.64 1.54,-2.56 0,-0.92 -0.69,-1.27 -1.54,-0.78z"/>
   <path class="fil23" d="M97.11 232.53c0.22,0 0.46,-0.07 0.72,-0.22l127.17 -73.58c0.85,-0.49 1.54,-1.64 1.54,-2.56 0,-0.64 -0.33,-1 -0.82,-1 -0.22,0 -0.46,0.07 -0.73,0.22l-127.17 73.57c-0.85,0.49 -1.54,1.64 -1.54,2.56 0,0.64 0.33,1 0.82,1z"/>
   <path class="fil5" d="M261.47 214.82l-164.54 94.89c-0.85,0.49 -1.54,1.64 -1.54,2.56 0,0.92 0.69,1.27 1.54,0.78l164.54 -94.89c0.85,-0.49 1.54,-1.64 1.54,-2.56 0,-0.92 -0.69,-1.27 -1.54,-0.78z"/>
   <path class="fil4" d="M284.59 201.47l-14.26 8.22c-0.85,0.49 -1.54,1.64 -1.54,2.56 0,0.92 0.69,1.27 1.54,0.78l14.26 -8.23c0.85,-0.49 1.54,-1.64 1.54,-2.56 0,-0.92 -0.69,-1.27 -1.54,-0.78z"/>
   <path class="fil23" d="M269.61 213.26c0.22,0 0.46,-0.07 0.72,-0.22l14.26 -8.23c0.85,-0.49 1.54,-1.64 1.54,-2.56 0,-0.64 -0.33,-1 -0.81,-1 -0.22,0 -0.46,0.07 -0.73,0.22l-14.26 8.22c-0.85,0.49 -1.54,1.64 -1.54,2.56 0,0.64 0.33,1 0.82,1z"/>
   <path class="fil5" d="M261.47 228.17l-164.54 94.89c-0.85,0.49 -1.54,1.64 -1.54,2.56 0,0.93 0.69,1.27 1.54,0.78l164.54 -94.89c0.85,-0.49 1.54,-1.64 1.54,-2.56 0,-0.92 -0.69,-1.27 -1.54,-0.78z"/>
   <path class="fil4" d="M284.59 214.82l-14.26 8.23c-0.85,0.49 -1.54,1.64 -1.54,2.56 0,0.92 0.69,1.27 1.54,0.78l14.26 -8.22c0.85,-0.49 1.54,-1.64 1.54,-2.56 0,-0.92 -0.69,-1.27 -1.54,-0.78z"/>
   <path class="fil23" d="M269.61 226.6c0.22,0 0.46,-0.07 0.72,-0.22l14.26 -8.22c0.85,-0.49 1.54,-1.64 1.54,-2.56 0,-0.64 -0.33,-1.01 -0.82,-1.01 -0.22,0 -0.46,0.07 -0.72,0.22l-14.26 8.23c-0.85,0.49 -1.54,1.64 -1.54,2.56 0,0.64 0.33,1 0.82,1z"/>
   <path class="fil5" d="M261.47 241.51l-164.54 94.88c-0.85,0.5 -1.54,1.64 -1.54,2.56 0,0.92 0.69,1.27 1.54,0.78l164.54 -94.89c0.85,-0.49 1.54,-1.64 1.54,-2.56 0,-0.92 -0.69,-1.27 -1.54,-0.78z"/>
   <path class="fil4" d="M284.59 228.17l-14.26 8.22c-0.85,0.49 -1.54,1.64 -1.54,2.56 0,0.92 0.69,1.27 1.54,0.78l14.26 -8.22c0.85,-0.49 1.54,-1.64 1.54,-2.56 0,-0.92 -0.69,-1.27 -1.54,-0.78z"/>
   <path class="fil23" d="M269.61 239.95c0.22,0 0.46,-0.07 0.72,-0.22l14.26 -8.22c0.85,-0.49 1.54,-1.64 1.54,-2.56 0,-0.64 -0.33,-1 -0.81,-1 -0.22,0 -0.46,0.07 -0.73,0.22l-14.26 8.22c-0.85,0.49 -1.54,1.64 -1.54,2.56 0,0.64 0.33,1 0.82,1z"/>
   <path class="fil24" d="M297.77 92.63c0.2,0 0.43,-0.07 0.68,-0.21l8.39 -4.84c0.84,-0.49 1.52,-1.67 1.52,-2.64l0 -3.08c0,-0.69 -0.34,-1.09 -0.84,-1.09 -0.21,0 -0.44,0.07 -0.68,0.21l-8.39 4.84c-0.84,0.49 -1.52,1.67 -1.52,2.64l0 3.08c0,0.69 0.34,1.09 0.84,1.09z"/>
   <path class="fil24" d="M297.77 106.11c0.2,0 0.43,-0.07 0.68,-0.21l8.39 -4.84c0.84,-0.49 1.52,-1.67 1.52,-2.64l0 -3.08c0,-0.69 -0.34,-1.09 -0.84,-1.09 -0.21,0 -0.44,0.07 -0.68,0.21l-8.39 4.84c-0.84,0.49 -1.52,1.67 -1.52,2.64l0 3.08c0,0.69 0.34,1.08 0.84,1.08z"/>
   <path class="fil24" d="M297.77 119.59c0.2,0 0.43,-0.07 0.68,-0.21l8.39 -4.84c0.84,-0.49 1.52,-1.67 1.52,-2.64l0 -3.08c0,-0.69 -0.34,-1.08 -0.84,-1.08 -0.21,0 -0.44,0.06 -0.68,0.21l-8.39 4.84c-0.84,0.49 -1.52,1.67 -1.52,2.64l0 3.08c0,0.69 0.34,1.09 0.84,1.09z"/>
   <path class="fil24" d="M297.77 133.06c0.2,0 0.43,-0.07 0.68,-0.21l8.39 -4.84c0.84,-0.48 1.52,-1.67 1.52,-2.64l0 -3.08c0,-0.69 -0.34,-1.09 -0.84,-1.09 -0.21,0 -0.44,0.07 -0.68,0.21l-8.39 4.84c-0.84,0.49 -1.52,1.67 -1.52,2.64l0 3.08c0,0.69 0.34,1.09 0.84,1.09z"/>
   <path class="fil24" d="M297.77 146.54c0.2,0 0.43,-0.06 0.68,-0.21l8.39 -4.84c0.84,-0.49 1.52,-1.67 1.52,-2.64l0 -3.08c0,-0.69 -0.34,-1.09 -0.84,-1.09 -0.21,0 -0.44,0.07 -0.68,0.21l-8.39 4.84c-0.84,0.49 -1.52,1.67 -1.52,2.64l0 3.08c0,0.69 0.34,1.09 0.84,1.09z"/>
   <path class="fil24" d="M297.77 160.02c0.2,0 0.43,-0.06 0.68,-0.21l8.39 -4.84c0.84,-0.49 1.52,-1.67 1.52,-2.64l0 -3.08c0,-0.69 -0.34,-1.09 -0.84,-1.09 -0.21,0 -0.44,0.06 -0.68,0.21l-8.39 4.84c-0.84,0.49 -1.52,1.67 -1.52,2.64l0 3.08c0,0.69 0.34,1.08 0.84,1.08z"/>
   <path class="fil24" d="M297.77 173.5c0.2,0 0.43,-0.07 0.68,-0.21l8.39 -4.84c0.84,-0.49 1.52,-1.67 1.52,-2.64l0 -3.08c0,-0.69 -0.34,-1.09 -0.84,-1.09 -0.21,0 -0.44,0.07 -0.68,0.21l-8.39 4.84c-0.84,0.48 -1.52,1.67 -1.52,2.64l0 3.08c0,0.69 0.34,1.09 0.84,1.09z"/>
   <path class="fil24" d="M297.77 186.97c0.2,0 0.43,-0.07 0.68,-0.21l8.39 -4.84c0.84,-0.49 1.52,-1.67 1.52,-2.64l0 -3.08c0,-0.69 -0.34,-1.09 -0.84,-1.09 -0.21,0 -0.44,0.07 -0.68,0.21l-8.39 4.84c-0.84,0.48 -1.52,1.67 -1.52,2.64l0 3.08c0,0.69 0.34,1.08 0.84,1.08z"/>
   <path class="fil24" d="M297.77 200.45c0.2,0 0.43,-0.07 0.68,-0.21l8.39 -4.84c0.84,-0.49 1.52,-1.67 1.52,-2.64l0 -3.08c0,-0.69 -0.34,-1.08 -0.84,-1.08 -0.21,0 -0.44,0.06 -0.68,0.21l-8.39 4.84c-0.84,0.49 -1.52,1.67 -1.52,2.64l0 3.08c0,0.69 0.34,1.09 0.84,1.09z"/>
   <path class="fil24" d="M297.77 213.93c0.2,0 0.43,-0.07 0.68,-0.21l8.39 -4.84c0.84,-0.49 1.52,-1.67 1.52,-2.64l0 -3.08c0,-0.69 -0.34,-1.09 -0.84,-1.09 -0.21,0 -0.44,0.07 -0.68,0.21l-8.39 4.84c-0.84,0.49 -1.52,1.67 -1.52,2.64l0 3.08c0,0.69 0.34,1.09 0.84,1.09z"/>
   <path class="fil24" d="M297.77 227.41c0.2,0 0.43,-0.07 0.68,-0.21l8.39 -4.84c0.84,-0.49 1.52,-1.67 1.52,-2.64l0 -3.08c0,-0.69 -0.34,-1.09 -0.84,-1.09 -0.21,0 -0.44,0.07 -0.68,0.21l-8.39 4.84c-0.84,0.48 -1.52,1.67 -1.52,2.64l0 3.08c0,0.69 0.34,1.08 0.84,1.08z"/>
   <path class="fil24" d="M297.77 240.89c0.2,0 0.43,-0.07 0.68,-0.21l8.39 -4.84c0.84,-0.48 1.52,-1.67 1.52,-2.64l0 -3.08c0,-0.69 -0.34,-1.09 -0.84,-1.09 -0.21,0 -0.44,0.06 -0.68,0.21l-8.39 4.84c-0.84,0.48 -1.52,1.67 -1.52,2.64l0 3.08c0,0.69 0.34,1.09 0.84,1.09z"/>
   <path class="fil25" d="M362.44 37.2l-45.33 26.17c-1.68,0.97 -3.04,3.33 -3.04,5.27l0 52.35c0,1.94 1.36,2.73 3.04,1.76l45.33 -26.18c1.68,-0.97 3.04,-3.33 3.04,-5.27l0 -52.35c0,-1.94 -1.36,-2.73 -3.04,-1.76z"/>
   <path class="fil4" d="M358.24 89.09l-4.17 2.41c-0.85,0.49 -1.54,1.64 -1.54,2.56 0,0.92 0.69,1.27 1.54,0.78l4.17 -2.41c0.85,-0.49 1.54,-1.64 1.54,-2.56 0,-0.92 -0.69,-1.27 -1.54,-0.78z"/>
   <path class="fil23" d="M353.34 95.06c0.22,0 0.46,-0.07 0.72,-0.22l4.17 -2.41c0.85,-0.49 1.54,-1.64 1.54,-2.56 0,-0.64 -0.33,-1 -0.82,-1 -0.22,0 -0.46,0.07 -0.72,0.22l-4.17 2.41c-0.85,0.49 -1.54,1.64 -1.54,2.56 0,0.64 0.33,1 0.82,1z"/>
   <path class="fil4" d="M358.24 46.22l-4.17 2.41c-0.85,0.49 -1.54,1.64 -1.54,2.56 0,0.92 0.69,1.27 1.54,0.78l4.17 -2.42c0.85,-0.49 1.54,-1.64 1.54,-2.56 0,-0.92 -0.69,-1.27 -1.54,-0.78z"/>
   <path class="fil23" d="M353.34 52.2c0.22,0 0.46,-0.07 0.72,-0.22l4.17 -2.42c0.85,-0.49 1.54,-1.64 1.54,-2.56 0,-0.64 -0.33,-1 -0.82,-1 -0.22,0 -0.46,0.07 -0.72,0.22l-4.17 2.41c-0.85,0.49 -1.54,1.64 -1.54,2.56 0,0.64 0.33,1 0.82,1z"/>
   <path class="fil4" d="M352.37 58.16l-4.17 2.42c-0.85,0.49 -1.54,1.64 -1.54,2.56 0,0.92 0.69,1.27 1.54,0.78l4.17 -2.41c0.85,-0.49 1.54,-1.64 1.54,-2.56 0,-0.92 -0.69,-1.27 -1.54,-0.78z"/>
   <path class="fil23" d="M347.47 64.14c0.22,0 0.46,-0.07 0.72,-0.22l4.17 -2.41c0.85,-0.49 1.54,-1.64 1.54,-2.56 0,-0.64 -0.33,-1 -0.82,-1 -0.22,0 -0.46,0.07 -0.72,0.22l-4.17 2.42c-0.85,0.49 -1.54,1.64 -1.54,2.56 0,0.64 0.33,1 0.82,1z"/>
   <path class="fil4" d="M352.37 66.72l-4.17 2.41c-0.85,0.49 -1.54,1.64 -1.54,2.56 0,0.92 0.69,1.27 1.54,0.78l4.17 -2.41c0.85,-0.49 1.54,-1.64 1.54,-2.56 0,-0.92 -0.69,-1.27 -1.54,-0.78z"/>
   <path class="fil23" d="M347.47 72.69c0.22,0 0.46,-0.07 0.72,-0.22l4.17 -2.41c0.85,-0.49 1.54,-1.64 1.54,-2.56 0,-0.64 -0.33,-1 -0.82,-1 -0.22,0 -0.46,0.07 -0.72,0.22l-4.17 2.41c-0.85,0.49 -1.54,1.64 -1.54,2.56 0,0.64 0.33,1 0.82,1z"/>
   <path class="fil4" d="M358.24 71.94l-4.17 2.42c-0.85,0.49 -1.54,1.64 -1.54,2.56 0,0.92 0.69,1.27 1.54,0.78l4.17 -2.42c0.85,-0.49 1.54,-1.64 1.54,-2.56 0,-0.92 -0.69,-1.27 -1.54,-0.78z"/>
   <path class="fil23" d="M353.34 77.91c0.22,0 0.46,-0.07 0.72,-0.22l4.17 -2.42c0.85,-0.49 1.54,-1.64 1.54,-2.56 0,-0.64 -0.33,-1 -0.82,-1 -0.22,0 -0.46,0.07 -0.72,0.22l-4.17 2.42c-0.85,0.49 -1.54,1.64 -1.54,2.56 0,0.64 0.33,1 0.82,1z"/>
   <path class="fil4" d="M352.37 83.89l-4.17 2.41c-0.85,0.49 -1.54,1.64 -1.54,2.56 0,0.92 0.69,1.27 1.54,0.78l4.17 -2.41c0.85,-0.49 1.54,-1.64 1.54,-2.56 0,-0.92 -0.69,-1.27 -1.54,-0.78z"/>
   <path class="fil23" d="M347.47 89.86c0.22,0 0.46,-0.07 0.72,-0.22l4.17 -2.41c0.85,-0.49 1.54,-1.64 1.54,-2.56 0,-0.64 -0.33,-1 -0.82,-1 -0.22,0 -0.46,0.07 -0.72,0.22l-4.17 2.41c-0.85,0.49 -1.54,1.64 -1.54,2.56 0,0.64 0.33,1 0.82,1z"/>
   <path class="fil4" d="M346.81 52.82l-25.49 14.72c-0.85,0.49 -1.54,1.64 -1.54,2.56 0,0.92 0.69,1.27 1.54,0.78l25.49 -14.72c0.85,-0.49 1.54,-1.64 1.54,-2.56 0,-0.92 -0.69,-1.27 -1.54,-0.78z"/>
   <path class="fil26" d="M320.6 71.1c0.22,0 0.46,-0.07 0.72,-0.22l25.49 -14.72c0.85,-0.49 1.54,-1.64 1.54,-2.56 0,-0.64 -0.33,-1 -0.81,-1 -0.22,0 -0.46,0.07 -0.72,0.22l-25.49 14.72c-0.85,0.49 -1.54,1.64 -1.54,2.56 0,0.64 0.33,1 0.82,1z"/>
   <path class="fil4" d="M346.81 95.69l-25.49 14.71c-0.85,0.5 -1.54,1.64 -1.54,2.56 0,0.92 0.69,1.27 1.54,0.78l25.49 -14.72c0.85,-0.49 1.54,-1.64 1.54,-2.56 0,-0.92 -0.69,-1.27 -1.54,-0.78z"/>
   <path class="fil26" d="M320.6 113.97c0.22,0 0.46,-0.07 0.72,-0.22l25.49 -14.72c0.85,-0.49 1.54,-1.64 1.54,-2.56 0,-0.64 -0.33,-1 -0.81,-1 -0.22,0 -0.46,0.07 -0.72,0.22l-25.49 14.71c-0.85,0.5 -1.54,1.64 -1.54,2.56 0,0.64 0.33,1 0.82,1z"/>
   <path class="fil4" d="M340.94 64.76l-19.62 11.35c-0.85,0.49 -1.54,1.64 -1.54,2.56 0,0.92 0.69,1.27 1.54,0.78l19.62 -11.35c0.85,-0.49 1.54,-1.64 1.54,-2.56 0,-0.92 -0.69,-1.27 -1.54,-0.78z"/>
   <path class="fil26" d="M320.6 79.67c0.22,0 0.46,-0.07 0.72,-0.22l19.62 -11.35c0.85,-0.49 1.54,-1.64 1.54,-2.56 0,-0.64 -0.33,-1 -0.82,-1 -0.22,0 -0.46,0.07 -0.73,0.22l-19.62 11.35c-0.85,0.49 -1.54,1.64 -1.54,2.56 0,0.64 0.33,1 0.82,1z"/>
   <path class="fil4" d="M340.94 73.34l-19.62 11.35c-0.85,0.49 -1.54,1.64 -1.54,2.56 0,0.92 0.69,1.27 1.54,0.78l19.62 -11.35c0.85,-0.49 1.54,-1.64 1.54,-2.56 0,-0.93 -0.69,-1.27 -1.54,-0.78z"/>
   <path class="fil26" d="M320.6 88.25c0.22,0 0.46,-0.07 0.72,-0.22l19.62 -11.35c0.85,-0.49 1.54,-1.64 1.54,-2.56 0,-0.64 -0.33,-1 -0.82,-1 -0.22,0 -0.46,0.07 -0.73,0.22l-19.62 11.35c-0.85,0.49 -1.54,1.64 -1.54,2.56 0,0.64 0.33,1 0.82,1z"/>
   <path class="fil4" d="M346.81 78.54l-25.49 14.72c-0.85,0.49 -1.54,1.64 -1.54,2.56 0,0.92 0.69,1.27 1.54,0.78l25.49 -14.72c0.85,-0.49 1.54,-1.64 1.54,-2.56 0,-0.92 -0.69,-1.27 -1.54,-0.78z"/>
   <path class="fil26" d="M320.6 96.82c0.22,0 0.46,-0.07 0.72,-0.22l25.49 -14.72c0.85,-0.49 1.54,-1.64 1.54,-2.56 0,-0.64 -0.33,-1 -0.81,-1 -0.22,0 -0.46,0.07 -0.72,0.22l-25.49 14.72c-0.85,0.49 -1.54,1.64 -1.54,2.56 0,0.64 0.33,1 0.82,1z"/>
   <path class="fil4" d="M340.94 90.49l-19.62 11.35c-0.85,0.49 -1.54,1.64 -1.54,2.56 0,0.92 0.69,1.27 1.54,0.78l19.62 -11.35c0.85,-0.49 1.54,-1.64 1.54,-2.56 0,-0.92 -0.69,-1.27 -1.54,-0.78z"/>
   <path class="fil26" d="M320.6 105.4c0.22,0 0.46,-0.07 0.72,-0.22l19.62 -11.35c0.85,-0.49 1.54,-1.64 1.54,-2.56 0,-0.64 -0.33,-1 -0.82,-1 -0.22,0 -0.46,0.07 -0.73,0.22l-19.62 11.35c-0.85,0.49 -1.54,1.64 -1.54,2.56 0,0.64 0.33,1 0.82,1z"/>
   <path class="fil25" d="M362.44 106.43l-45.33 26.17c-1.68,0.97 -3.04,3.33 -3.04,5.27l0 103.44c0,1.94 1.36,2.73 3.04,1.76l45.33 -26.18c1.68,-0.97 3.04,-3.33 3.04,-5.27l0 -103.44c0,-1.94 -1.36,-2.73 -3.04,-1.76z"/>
   <path class="fil4" d="M358.24 115.45l-4.17 2.41c-0.85,0.49 -1.54,1.64 -1.54,2.56 0,0.92 0.69,1.27 1.54,0.78l4.17 -2.41c0.85,-0.49 1.54,-1.64 1.54,-2.56 0,-0.92 -0.69,-1.27 -1.54,-0.78z"/>
   <path class="fil23" d="M353.34 121.43c0.22,0 0.46,-0.07 0.72,-0.22l4.17 -2.41c0.85,-0.49 1.54,-1.64 1.54,-2.56 0,-0.64 -0.33,-1 -0.82,-1 -0.22,0 -0.46,0.07 -0.72,0.22l-4.17 2.41c-0.85,0.49 -1.54,1.64 -1.54,2.56 0,0.64 0.33,1 0.82,1z"/>
   <path class="fil4" d="M352.37 127.39l-4.17 2.42c-0.85,0.49 -1.54,1.64 -1.54,2.56 0,0.93 0.69,1.27 1.54,0.78l4.17 -2.41c0.85,-0.49 1.54,-1.64 1.54,-2.56 0,-0.92 -0.69,-1.27 -1.54,-0.78z"/>
   <path class="fil23" d="M347.47 133.37c0.22,0 0.46,-0.07 0.72,-0.22l4.17 -2.41c0.85,-0.49 1.54,-1.64 1.54,-2.56 0,-0.64 -0.33,-1 -0.82,-1 -0.22,0 -0.46,0.07 -0.72,0.22l-4.17 2.42c-0.85,0.49 -1.54,1.64 -1.54,2.56 0,0.64 0.33,1 0.82,1z"/>
   <path class="fil4" d="M352.37 135.94l-4.17 2.41c-0.85,0.49 -1.54,1.64 -1.54,2.56 0,0.92 0.69,1.27 1.54,0.78l4.17 -2.41c0.85,-0.49 1.54,-1.64 1.54,-2.56 0,-0.92 -0.69,-1.27 -1.54,-0.78z"/>
   <path class="fil23" d="M347.47 141.92c0.22,0 0.46,-0.07 0.72,-0.22l4.17 -2.41c0.85,-0.49 1.54,-1.64 1.54,-2.56 0,-0.64 -0.33,-1 -0.82,-1 -0.22,0 -0.46,0.07 -0.72,0.22l-4.17 2.41c-0.85,0.49 -1.54,1.64 -1.54,2.56 0,0.64 0.33,1 0.82,1z"/>
   <path class="fil4" d="M358.24 141.17l-4.17 2.42c-0.85,0.49 -1.54,1.64 -1.54,2.56 0,0.92 0.69,1.27 1.54,0.78l4.17 -2.42c0.85,-0.49 1.54,-1.64 1.54,-2.56 0,-0.92 -0.69,-1.27 -1.54,-0.78z"/>
   <path class="fil23" d="M353.34 147.14c0.22,0 0.46,-0.07 0.72,-0.22l4.17 -2.42c0.85,-0.49 1.54,-1.64 1.54,-2.56 0,-0.64 -0.33,-1 -0.82,-1 -0.22,0 -0.46,0.07 -0.72,0.22l-4.17 2.42c-0.85,0.49 -1.54,1.64 -1.54,2.56 0,0.64 0.33,1 0.82,1z"/>
   <path class="fil4" d="M346.81 122.06l-25.49 14.71c-0.85,0.5 -1.54,1.64 -1.54,2.56 0,0.92 0.69,1.27 1.54,0.78l25.49 -14.72c0.85,-0.49 1.54,-1.64 1.54,-2.56 0,-0.92 -0.69,-1.27 -1.54,-0.78z"/>
   <path class="fil26" d="M320.6 140.33c0.22,0 0.46,-0.07 0.72,-0.22l25.49 -14.72c0.85,-0.49 1.54,-1.64 1.54,-2.56 0,-0.64 -0.33,-1 -0.81,-1 -0.22,0 -0.46,0.07 -0.72,0.22l-25.49 14.71c-0.85,0.5 -1.54,1.64 -1.54,2.56 0,0.64 0.33,1 0.82,1z"/>
   <path class="fil4" d="M340.94 133.99l-19.62 11.35c-0.85,0.49 -1.54,1.64 -1.54,2.56 0,0.93 0.69,1.27 1.54,0.78l19.62 -11.35c0.85,-0.49 1.54,-1.64 1.54,-2.56 0,-0.92 -0.69,-1.27 -1.54,-0.78z"/>
   <path class="fil26" d="M320.6 148.9c0.22,0 0.46,-0.07 0.72,-0.22l19.62 -11.35c0.85,-0.49 1.54,-1.64 1.54,-2.56 0,-0.64 -0.33,-1 -0.82,-1 -0.22,0 -0.46,0.07 -0.73,0.22l-19.62 11.35c-0.85,0.49 -1.54,1.64 -1.54,2.56 0,0.64 0.33,1 0.82,1z"/>
   <path class="fil4" d="M340.94 142.57l-19.62 11.35c-0.85,0.49 -1.54,1.64 -1.54,2.56 0,0.92 0.69,1.27 1.54,0.78l19.62 -11.35c0.85,-0.49 1.54,-1.64 1.54,-2.56 0,-0.92 -0.69,-1.27 -1.54,-0.78z"/>
   <path class="fil26" d="M320.6 157.48c0.22,0 0.46,-0.07 0.72,-0.22l19.62 -11.35c0.85,-0.49 1.54,-1.64 1.54,-2.56 0,-0.64 -0.33,-1 -0.82,-1 -0.22,0 -0.46,0.07 -0.73,0.22l-19.62 11.35c-0.85,0.49 -1.54,1.64 -1.54,2.56 0,0.64 0.33,1 0.82,1z"/>
   <path class="fil4" d="M346.81 147.77l-25.49 14.72c-0.85,0.49 -1.54,1.64 -1.54,2.56 0,0.92 0.69,1.27 1.54,0.78l25.49 -14.72c0.85,-0.49 1.54,-1.64 1.54,-2.56 0,-0.92 -0.69,-1.27 -1.54,-0.78z"/>
   <path class="fil26" d="M320.6 166.05c0.22,0 0.46,-0.07 0.72,-0.22l25.49 -14.72c0.85,-0.49 1.54,-1.64 1.54,-2.56 0,-0.64 -0.33,-1 -0.81,-1 -0.22,0 -0.46,0.07 -0.72,0.22l-25.49 14.72c-0.85,0.49 -1.54,1.64 -1.54,2.56 0,0.64 0.33,1 0.82,1z"/>
   <path class="fil4" d="M352.37 153.17l-4.17 2.41c-0.85,0.49 -1.54,1.64 -1.54,2.56 0,0.92 0.69,1.27 1.54,0.78l4.17 -2.41c0.85,-0.49 1.54,-1.64 1.54,-2.56 0,-0.92 -0.69,-1.27 -1.54,-0.78z"/>
   <path class="fil23" d="M347.47 159.14c0.22,0 0.46,-0.07 0.72,-0.22l4.17 -2.41c0.85,-0.49 1.54,-1.64 1.54,-2.56 0,-0.64 -0.33,-1 -0.82,-1 -0.22,0 -0.46,0.07 -0.72,0.22l-4.17 2.41c-0.85,0.49 -1.54,1.64 -1.54,2.56 0,0.64 0.33,1 0.82,1z"/>
   <path class="fil4" d="M352.37 161.72l-4.17 2.41c-0.85,0.49 -1.54,1.64 -1.54,2.56 0,0.92 0.69,1.27 1.54,0.78l4.17 -2.42c0.85,-0.49 1.54,-1.64 1.54,-2.56 0,-0.92 -0.69,-1.27 -1.54,-0.78z"/>
   <path class="fil23" d="M347.47 167.69c0.22,0 0.46,-0.07 0.72,-0.22l4.17 -2.42c0.85,-0.49 1.54,-1.64 1.54,-2.56 0,-0.64 -0.33,-1 -0.82,-1 -0.22,0 -0.46,0.07 -0.72,0.22l-4.17 2.41c-0.85,0.49 -1.54,1.64 -1.54,2.56 0,0.64 0.33,1 0.82,1z"/>
   <path class="fil4" d="M340.94 159.77l-19.62 11.35c-0.85,0.49 -1.54,1.64 -1.54,2.56 0,0.92 0.69,1.27 1.54,0.78l19.62 -11.35c0.85,-0.49 1.54,-1.64 1.54,-2.56 0,-0.92 -0.69,-1.27 -1.54,-0.78z"/>
   <path class="fil26" d="M320.6 174.68c0.22,0 0.46,-0.07 0.72,-0.22l19.62 -11.35c0.85,-0.49 1.54,-1.64 1.54,-2.56 0,-0.64 -0.33,-1 -0.82,-1 -0.22,0 -0.46,0.07 -0.73,0.22l-19.62 11.35c-0.85,0.49 -1.54,1.64 -1.54,2.56 0,0.64 0.33,1 0.82,1z"/>
   <path class="fil4" d="M340.94 168.34l-19.62 11.35c-0.85,0.49 -1.54,1.64 -1.54,2.56 0,0.92 0.69,1.27 1.54,0.78l19.62 -11.35c0.85,-0.49 1.54,-1.64 1.54,-2.56 0,-0.92 -0.69,-1.27 -1.54,-0.78z"/>
   <path class="fil26" d="M320.6 183.25c0.22,0 0.46,-0.07 0.72,-0.22l19.62 -11.35c0.85,-0.49 1.54,-1.64 1.54,-2.56 0,-0.64 -0.33,-1 -0.82,-1 -0.22,0 -0.46,0.07 -0.73,0.22l-19.62 11.35c-0.85,0.49 -1.54,1.64 -1.54,2.56 0,0.64 0.33,1 0.82,1z"/>
   <path class="fil4" d="M358.24 184.14l-4.17 2.42c-0.85,0.49 -1.54,1.64 -1.54,2.56 0,0.92 0.69,1.27 1.54,0.78l4.17 -2.42c0.85,-0.49 1.54,-1.64 1.54,-2.56 0,-0.92 -0.69,-1.27 -1.54,-0.78z"/>
   <path class="fil23" d="M353.34 190.11c0.22,0 0.46,-0.07 0.72,-0.22l4.17 -2.42c0.85,-0.49 1.54,-1.64 1.54,-2.56 0,-0.64 -0.33,-1 -0.82,-1 -0.22,0 -0.46,0.07 -0.72,0.22l-4.17 2.42c-0.85,0.49 -1.54,1.64 -1.54,2.56 0,0.64 0.33,1 0.82,1z"/>
   <path class="fil4" d="M346.81 190.75l-25.49 14.72c-0.85,0.49 -1.54,1.64 -1.54,2.56 0,0.92 0.69,1.27 1.54,0.78l25.49 -14.72c0.85,-0.49 1.54,-1.64 1.54,-2.56 0,-0.92 -0.69,-1.27 -1.54,-0.78z"/>
   <path class="fil26" d="M320.6 209.02c0.22,0 0.46,-0.07 0.72,-0.22l25.49 -14.72c0.85,-0.49 1.54,-1.64 1.54,-2.56 0,-0.64 -0.33,-1 -0.81,-1 -0.22,0 -0.46,0.07 -0.72,0.22l-25.49 14.72c-0.85,0.49 -1.54,1.64 -1.54,2.56 0,0.64 0.33,1 0.82,1z"/>
   <path class="fil4" d="M352.37 196.14l-4.17 2.41c-0.85,0.49 -1.54,1.64 -1.54,2.56 0,0.92 0.69,1.27 1.54,0.78l4.17 -2.41c0.85,-0.49 1.54,-1.64 1.54,-2.56 0,-0.92 -0.69,-1.27 -1.54,-0.78z"/>
   <path class="fil23" d="M347.47 202.11c0.22,0 0.46,-0.07 0.72,-0.22l4.17 -2.41c0.85,-0.49 1.54,-1.64 1.54,-2.56 0,-0.64 -0.33,-1 -0.82,-1 -0.22,0 -0.46,0.07 -0.72,0.22l-4.17 2.41c-0.85,0.49 -1.54,1.64 -1.54,2.56 0,0.64 0.33,1 0.82,1z"/>
   <path class="fil4" d="M352.37 204.69l-4.17 2.41c-0.85,0.49 -1.54,1.64 -1.54,2.56 0,0.92 0.69,1.27 1.54,0.78l4.17 -2.41c0.85,-0.49 1.54,-1.64 1.54,-2.56 0,-0.92 -0.69,-1.27 -1.54,-0.78z"/>
   <path class="fil23" d="M347.47 210.66c0.22,0 0.46,-0.07 0.72,-0.22l4.17 -2.41c0.85,-0.49 1.54,-1.64 1.54,-2.56 0,-0.64 -0.33,-1 -0.82,-1 -0.22,0 -0.46,0.07 -0.72,0.22l-4.17 2.41c-0.85,0.49 -1.54,1.64 -1.54,2.56 0,0.64 0.33,1 0.82,1z"/>
   <path class="fil4" d="M340.94 202.74l-19.62 11.35c-0.85,0.49 -1.54,1.64 -1.54,2.56 0,0.92 0.69,1.27 1.54,0.78l19.62 -11.35c0.85,-0.49 1.54,-1.64 1.54,-2.56 0,-0.92 -0.69,-1.27 -1.54,-0.78z"/>
   <path class="fil26" d="M320.6 217.65c0.22,0 0.46,-0.07 0.72,-0.22l19.62 -11.35c0.85,-0.49 1.54,-1.64 1.54,-2.56 0,-0.64 -0.33,-1 -0.82,-1 -0.22,0 -0.46,0.07 -0.73,0.22l-19.62 11.35c-0.85,0.49 -1.54,1.64 -1.54,2.56 0,0.64 0.33,1 0.82,1z"/>
   <path class="fil4" d="M340.94 211.31l-19.62 11.35c-0.85,0.5 -1.54,1.64 -1.54,2.56 0,0.92 0.69,1.27 1.54,0.78l19.62 -11.35c0.85,-0.49 1.54,-1.64 1.54,-2.56 0,-0.92 -0.69,-1.27 -1.54,-0.78z"/>
   <path class="fil26" d="M320.6 226.22c0.22,0 0.46,-0.07 0.72,-0.22l19.62 -11.35c0.85,-0.49 1.54,-1.64 1.54,-2.56 0,-0.64 -0.33,-1 -0.82,-1 -0.22,0 -0.46,0.07 -0.73,0.22l-19.62 11.35c-0.85,0.5 -1.54,1.64 -1.54,2.56 0,0.64 0.33,1 0.82,1z"/>
   <path class="fil4" d="M352.37 170.22l-4.17 2.41c-0.85,0.49 -1.54,1.64 -1.54,2.56 0,0.92 0.69,1.27 1.54,0.78l4.17 -2.41c0.85,-0.49 1.54,-1.64 1.54,-2.56 0,-0.92 -0.69,-1.27 -1.54,-0.78z"/>
   <path class="fil23" d="M347.47 176.2c0.22,0 0.46,-0.07 0.72,-0.22l4.17 -2.41c0.85,-0.49 1.54,-1.64 1.54,-2.56 0,-0.64 -0.33,-1 -0.82,-1 -0.22,0 -0.46,0.07 -0.72,0.22l-4.17 2.41c-0.85,0.49 -1.54,1.64 -1.54,2.56 0,0.64 0.33,1 0.82,1z"/>
   <path class="fil4" d="M358.24 175.45l-4.17 2.41c-0.85,0.49 -1.54,1.64 -1.54,2.56 0,0.92 0.69,1.27 1.54,0.78l4.17 -2.41c0.85,-0.49 1.54,-1.64 1.54,-2.56 0,-0.92 -0.69,-1.27 -1.54,-0.78z"/>
   <path class="fil23" d="M353.34 181.42c0.22,0 0.46,-0.07 0.72,-0.22l4.17 -2.41c0.85,-0.49 1.54,-1.64 1.54,-2.56 0,-0.64 -0.33,-1 -0.82,-1 -0.22,0 -0.46,0.07 -0.72,0.22l-4.17 2.41c-0.85,0.49 -1.54,1.64 -1.54,2.56 0,0.64 0.33,1 0.82,1z"/>
   <path class="fil4" d="M340.94 176.85l-19.62 11.35c-0.85,0.49 -1.54,1.64 -1.54,2.56 0,0.92 0.69,1.27 1.54,0.78l19.62 -11.35c0.85,-0.49 1.54,-1.64 1.54,-2.56 0,-0.92 -0.69,-1.27 -1.54,-0.78z"/>
   <path class="fil26" d="M320.6 191.76c0.22,0 0.46,-0.07 0.72,-0.22l19.62 -11.35c0.85,-0.49 1.54,-1.64 1.54,-2.56 0,-0.64 -0.33,-1 -0.82,-1 -0.22,0 -0.46,0.07 -0.73,0.23l-19.62 11.35c-0.85,0.49 -1.54,1.64 -1.54,2.56 0,0.64 0.33,1 0.82,1z"/>
   <path class="fil4" d="M346.81 182.05l-25.49 14.72c-0.85,0.49 -1.54,1.64 -1.54,2.56 0,0.92 0.69,1.27 1.54,0.78l25.49 -14.72c0.85,-0.49 1.54,-1.64 1.54,-2.56 0,-0.92 -0.69,-1.27 -1.54,-0.78z"/>
   <path class="fil26" d="M320.6 200.33c0.22,0 0.46,-0.07 0.72,-0.22l25.49 -14.72c0.85,-0.49 1.54,-1.64 1.54,-2.56 0,-0.64 -0.33,-1 -0.81,-1 -0.22,0 -0.46,0.07 -0.72,0.22l-25.49 14.72c-0.85,0.49 -1.54,1.64 -1.54,2.56 0,0.64 0.33,1 0.82,1z"/>
   <path class="fil4" d="M358.24 210.03l-4.17 2.41c-0.85,0.49 -1.54,1.64 -1.54,2.56 0,0.92 0.69,1.27 1.54,0.78l4.17 -2.42c0.85,-0.49 1.54,-1.64 1.54,-2.56 0,-0.92 -0.69,-1.27 -1.54,-0.78z"/>
   <path class="fil23" d="M353.34 216c0.22,0 0.46,-0.07 0.72,-0.22l4.17 -2.42c0.85,-0.49 1.54,-1.64 1.54,-2.56 0,-0.64 -0.33,-1 -0.82,-1 -0.22,0 -0.46,0.07 -0.72,0.22l-4.17 2.41c-0.85,0.49 -1.54,1.64 -1.54,2.56 0,0.64 0.33,1 0.82,1z"/>
   <path class="fil4" d="M346.81 216.64l-25.49 14.72c-0.85,0.49 -1.54,1.63 -1.54,2.56 0,0.92 0.69,1.27 1.54,0.78l25.49 -14.72c0.85,-0.49 1.54,-1.64 1.54,-2.56 0,-0.92 -0.69,-1.27 -1.54,-0.78z"/>
   <path class="fil26" d="M320.6 234.91c0.22,0 0.46,-0.07 0.72,-0.22l25.49 -14.72c0.85,-0.49 1.54,-1.64 1.54,-2.56 0,-0.64 -0.33,-1 -0.81,-1 -0.22,0 -0.46,0.07 -0.72,0.22l-25.49 14.72c-0.85,0.49 -1.54,1.63 -1.54,2.56 0,0.64 0.33,1 0.82,1z"/>
   <path class="fil27" d="M8.03 484.29c0.35,0 0.74,-0.12 1.12,-0.34l35.87 -20.7 66.03 -39.34 -0.85 -43.64 0 -8.74 -24.82 14.33 -4.14 2.39 -0.01 0 -0.12 0.06c-0.47,0.27 -0.95,0.41 -1.37,0.41 -0.02,0 -0.04,0 -0.06,0l-0.56 -0.07 -0.37 -0.13 -0.23 -0.13 -0.19 -0.12c-0.02,-0.01 -0.03,-0.02 -0.05,-0.03l0 0 0.04 0.04 -0.22 -0.12 -4.58 -2.64c-1.24,-0.7 -2.07,-1.96 -2.26,-3.36 -0.03,-0.21 -0.04,-0.42 -0.04,-0.63l0 -19.96 -23.18 13.38c-0.21,0.12 -0.41,0.18 -0.59,0.18 -0.4,0 -0.67,-0.29 -0.67,-0.81l0 0c0,-0.75 0.56,-1.68 1.25,-2.08l23.18 -13.37 0 -18.99 -23.18 13.37c-0.21,0.12 -0.41,0.18 -0.59,0.18 -0.4,0 -0.67,-0.29 -0.67,-0.81l0 0c0,-0.75 0.56,-1.68 1.25,-2.08l23.18 -13.38 0 -8.13 -4.39 2.53c-0.21,0.12 -0.41,0.18 -0.59,0.18 -0.4,0 -0.66,-0.3 -0.66,-0.81l0 0c0,-0.75 0.56,-1.68 1.25,-2.08l4.39 -2.53 0 -40.47 -65.6 37.81 -0.01 -0 0 157.36c0.03,0.69 0.16,1.28 0.37,1.78l0 0c0.16,0.35 0.37,0.67 0.65,0.92l0.19 0.17 0.21 0.14 0.19 0.11 0.3 0.1 0.45 0.06c0.02,0 0.03,0 0.04,0zm36.42 -108.63l0 0c0,0.75 -0.56,1.68 -1.25,2.08l-14.86 8.61c-0.21,0.12 -0.41,0.18 -0.59,0.18 -0.39,0 -0.66,-0.29 -0.66,-0.81l0 0c0,-0.75 0.56,-1.68 1.25,-2.08l14.86 -8.61c0.21,-0.12 0.41,-0.18 0.59,-0.18 0.4,0 0.66,0.3 0.66,0.81l0 0zm0 -21.7l0 0c0,0.75 -0.56,1.68 -1.25,2.08l-14.86 8.61c-0.21,0.12 -0.41,0.18 -0.59,0.18 -0.4,0 -0.67,-0.29 -0.67,-0.81l0 0c0,-0.75 0.56,-1.68 1.25,-2.08l14.86 -8.61c0.21,-0.12 0.41,-0.18 0.59,-0.18 0.4,0 0.66,0.29 0.66,0.81l0 0zm18.8 -21.68l0 0c0,0.75 -0.56,1.68 -1.25,2.08l-14.86 8.61c-0.21,0.12 -0.41,0.18 -0.59,0.18 -0.4,0 -0.67,-0.3 -0.67,-0.81l0 0c0,-0.75 0.56,-1.68 1.25,-2.08l14.86 -8.61c0.21,-0.12 0.41,-0.18 0.59,-0.18 0.4,0 0.67,0.3 0.67,0.82l0 0zm14.19 55.25c-0.4,-0.5 -0.65,-1.13 -0.65,-1.86l0 -0.95 0 -0.04 0 -26.32 -0 0 0 27.3c0,0.73 0.25,1.37 0.66,1.86zm-0.66 -31.87l0 0 0 -18.99 -0 0 0 18.99zm0 -21.7l0 -0 0 -8.13 -0 0 0 8.13zm0 -10.84l0 -0 0 -40.46 -0 0 0 40.46z"/>
   <path class="fil28" d="M55.65 457.12l0 0 -26.61 -15.37 26.61 15.37zm-36.62 -22.29c-0.03,-0.14 -0.04,-0.28 -0.04,-0.42 0,-0.61 0.25,-1.21 0.77,-1.76 -0.51,0.53 -0.77,1.13 -0.77,1.73 0,0.15 0.01,0.3 0.05,0.45zm-1.05 -0.17c0.56,-0.86 1.24,-1.63 1.99,-2.22 0.25,-0.23 0.55,-0.45 0.9,-0.65l89.34 -51.53 -89.34 51.53c-1.1,0.63 -2.1,1.67 -2.89,2.87z"/>
   <path class="fil28" d="M16.43 442.6c-0.06,-0.39 -0.1,-0.77 -0.1,-1.14l0 -1.81c0,-0.99 0.24,-2.07 0.66,-3.1 -0.42,1.03 -0.66,2.11 -0.66,3.1l0 1.8c0,0.37 0.03,0.76 0.1,1.15z"/>
   <path class="fil11" d="M79.75 388.72c0.43,0 0.9,-0.14 1.37,-0.41l0.12 -0.06 0.01 -0 4.14 -2.39 24.82 -14.33 0 -26.4 -13.27 7.65c-0.26,0.15 -0.51,0.22 -0.72,0.22 -0.49,0 -0.82,-0.36 -0.82,-1 0,-0.92 0.69,-2.07 1.54,-2.56l13.27 -7.65 0 -9.69 -13.27 7.65c-0.26,0.15 -0.51,0.22 -0.72,0.22 -0.49,0 -0.82,-0.36 -0.82,-1 0,-0.92 0.69,-2.07 1.54,-2.56l13.27 -7.65 0 -10.01 -13.27 7.65c-0.26,0.15 -0.51,0.22 -0.72,0.22 -0.41,0 -0.71,-0.26 -0.79,-0.72l-5.98 3.45c-0.21,0.12 -0.41,0.18 -0.59,0.18 -0.4,0 -0.67,-0.3 -0.67,-0.81l0 0c0,-0.75 0.56,-1.68 1.25,-2.08l11.59 -6.68c0.21,-0.12 0.41,-0.18 0.59,-0.18 0.23,0 0.41,0.1 0.53,0.28l8.06 -4.65 0 -10.01 -7.93 4.58c-0.09,0.71 -0.61,1.5 -1.24,1.86l-24.24 13.99 0 8.13 5.45 -3.14c0.21,-0.12 0.41,-0.18 0.59,-0.18 0.39,0 0.66,0.29 0.66,0.81l0 0c0,0.75 -0.56,1.68 -1.25,2.08l-5.45 3.14 0 18.99 5.45 -3.14c0.21,-0.12 0.41,-0.18 0.59,-0.18 0.4,0 0.66,0.29 0.66,0.81l0 0c0,0.75 -0.56,1.68 -1.25,2.08l-5.45 3.14 0 26.32 0 0.04 0 0.95c0,0.72 0.25,1.36 0.65,1.86 0.2,0.24 0.43,0.44 0.69,0.6l0.14 0.1 0.03 0.03c0.02,0.01 0.03,0.02 0.05,0.03l0.18 0.12 0.23 0.13 0.37 0.13 0.56 0.07c0.02,0 0.04,0 0.06,0zm22.53 -35.58l0 0c0,0.75 -0.56,1.68 -1.25,2.08l-11.59 6.69c-0.21,0.12 -0.41,0.18 -0.59,0.18 -0.4,0 -0.67,-0.3 -0.67,-0.82l0 0c0,-0.75 0.56,-1.68 1.25,-2.08l11.59 -6.69c0.21,-0.12 0.41,-0.18 0.59,-0.18 0.4,0 0.66,0.3 0.66,0.82l0 0zm0 -10.85l0 0c0,0.75 -0.56,1.68 -1.25,2.08l-11.59 6.69c-0.21,0.12 -0.41,0.18 -0.59,0.18 -0.39,0 -0.67,-0.3 -0.67,-0.81 0,-0 0,-0 0,-0l0 -0c0,-0.75 0.56,-1.68 1.25,-2.08l11.59 -6.69c0.21,-0.12 0.41,-0.18 0.59,-0.18 0.4,0 0.66,0.29 0.66,0.81 0,0 0,0 0,0zm0 -10.85l0 0c0,0.75 -0.56,1.68 -1.25,2.08l-11.59 6.69c-0.21,0.12 -0.41,0.18 -0.59,0.18 -0.39,0 -0.67,-0.3 -0.67,-0.82l0 0c0,-0.75 0.56,-1.68 1.25,-2.08l11.59 -6.68c0.21,-0.12 0.41,-0.18 0.59,-0.18 0.4,0 0.66,0.29 0.66,0.81l0 0zm-25.5 -8.33l18.61 -10.73c-0,-0.03 -0,-0.07 -0,-0.1 0,-0.92 0.69,-2.07 1.54,-2.56l13.27 -7.65 0 -10.33 -13.27 7.64c-0.26,0.15 -0.51,0.22 -0.72,0.22 -0.49,0 -0.82,-0.36 -0.82,-1 0,-0.92 0.69,-2.07 1.54,-2.56l13.27 -7.64 0 -10.08 -13.27 7.69c-0.26,0.15 -0.51,0.22 -0.72,0.22 -0.49,0 -0.82,-0.37 -0.82,-1 0,-0.92 0.69,-2.07 1.54,-2.56l13.27 -7.69 0 -23.13 -0.02 -0.44 -0.02 -0.12c0.02,0.17 0.04,0.34 0.04,0.53l0 11.57 -33.41 19.25 0 40.46z"/>
   <path class="fil29" d="M78.34 388.29l-0.04 -0.04 -0 -0c-0.33,-0.19 -0.62,-0.43 -0.86,-0.72 -0.41,-0.49 -0.66,-1.13 -0.66,-1.86l0 -27.3 -5.54 3.2 0 19.96c0,0.21 0.02,0.42 0.05,0.63 0.19,1.41 1.02,2.66 2.26,3.36l4.57 2.64 0.23 0.13zm-7.11 -29.44l5.54 -3.2 0 -18.99 -5.54 3.2 0 18.99zm0 -21.7l5.54 -3.2 0 -8.13 -5.54 3.2 0 8.13zm0 -10.84l5.54 -3.2 0 -40.47 -5.54 3.2 0 40.47z"/>
   <path class="fil30" d="M78.29 388.24l-0.03 -0.03 -0.14 -0.1c-0.26,-0.16 -0.5,-0.36 -0.69,-0.6 0.24,0.29 0.53,0.54 0.86,0.72z"/>
   <path class="fil31" d="M96.2 352.99c0.22,0 0.46,-0.07 0.72,-0.22l13.27 -7.65 0 -3.34 -13.27 7.65c-0.85,0.49 -1.54,1.64 -1.54,2.56 0,0.64 0.33,1 0.82,1z"/>
   <path class="fil27" d="M96.2 299.59c0.22,0 0.46,-0.07 0.72,-0.22l13.27 -7.64 0 -3.34 -13.27 7.64c-0.85,0.49 -1.54,1.64 -1.54,2.56 0,0.64 0.33,1 0.82,1z"/>
   <path class="fil27" d="M96.2 286.21c0.22,0 0.46,-0.07 0.72,-0.22l13.27 -7.69 0 -3.34 -13.27 7.69c-0.85,0.49 -1.54,1.64 -1.54,2.56 0,0.64 0.33,1 0.82,1z"/>
   <path class="fil32" d="M95.39 312.36l5.64 -3.25c0.21,-0.12 0.41,-0.18 0.59,-0.18 0.4,0 0.66,0.3 0.66,0.81l0 0c0,0.07 -0,0.15 -0.02,0.22l7.93 -4.58 0 -3.34 -13.27 7.65c-0.85,0.49 -1.54,1.64 -1.54,2.56 0,0.03 0,0.06 0,0.1z"/>
   <path class="fil32" d="M96.2 326.62c0.22,0 0.46,-0.07 0.72,-0.22l13.27 -7.65 0 -3.34 -8.06 4.65c0.09,0.13 0.14,0.31 0.14,0.53l0 0c0,0.75 -0.56,1.68 -1.25,2.08l-5.62 3.24c0.09,0.46 0.38,0.72 0.79,0.72z"/>
   <path class="fil32" d="M96.2 339.96c0.22,0 0.46,-0.07 0.72,-0.22l13.27 -7.65 0 -3.34 -13.27 7.65c-0.85,0.5 -1.54,1.64 -1.54,2.56 0,0.64 0.33,1 0.82,1z"/>
   <path class="fil27" d="M39.87 288.31l31.37 -18.08 0 -0 -31.37 18.08zm36.91 -21.27l0 -0 0 -0 -0 0 0 0z"/>
   <path class="fil11" d="M76.78 267.03l29.89 -17.23c0.42,-0.24 0.81,-0.39 1.18,-0.45 -0.19,0.03 -0.38,0.08 -0.59,0.16 -0.19,0.07 -0.39,0.17 -0.6,0.28l-29.88 17.23 0 0z"/>
   <polygon class="fil29" points="71.23,270.23 76.78,267.03 76.78,267.03 71.23,270.22 "/>
   <path class="fil11" d="M110.03 250.75l-0.01 -0.05 -0.01 -0.03c0.01,0.03 0.02,0.06 0.02,0.08zm-0.65 -1.02l-0.03 -0.02 -0.02 -0.02 -0.07 -0.04c0.04,0.03 0.07,0.06 0.11,0.08z"/>
   <path class="fil4" d="M109.04 249.5c-0.64,-0.3 -1.46,-0.22 -2.37,0.3l-97.51 56.2c-1.94,1.12 -3.53,3.87 -3.53,6.11l0 11.52 -5.62 -3.25 0 -11.44c0,-2.24 1.57,-4.97 3.52,-6.1l97.53 -56.2c1.01,-0.59 1.91,-0.6 2.56,-0.21 0.64,0.38 4.68,2.67 5.43,3.06z"/>
   <path class="fil13" d="M110.19 251.81c-0.01,-2.23 -1.58,-3.13 -3.52,-2.01l-97.51 56.2c-1.95,1.12 -3.52,3.86 -3.52,6.11l0 11.53 104.56 -60.26 0 -11.57z"/>
   <path class="fil9" d="M1.87 304.28c0.49,-0.59 1.05,-1.09 1.65,-1.43l67.71 -39.02 0 -0 -67.71 39.02c-0.6,0.34 -1.16,0.84 -1.66,1.43zm74.91 -43.65l0 -0 0 -0 -0 0 0 0z"/>
   <path class="fil14" d="M76.78 260.63l24.27 -13.98c0.56,-0.33 1.09,-0.48 1.56,-0.48 0.37,0 0.71,0.09 1,0.27 0.62,0.38 4.55,2.6 5.39,3.04 -0.81,-0.43 -4.77,-2.66 -5.39,-3.04 -0.29,-0.18 -0.63,-0.27 -1,-0.27 -0.47,0 -1,0.15 -1.56,0.48l-24.26 13.98 0 0z"/>
   <polygon class="fil33" points="71.23,263.83 76.78,260.63 76.78,260.63 71.23,263.82 "/>
   <path class="fil14" d="M106.71 249.77c0.19,-0.1 0.37,-0.19 0.55,-0.25 0,0 0,-0 0,-0 -0.18,0.07 -0.36,0.15 -0.55,0.26z"/>
   <path class="fil24" d="M6.68 308.61c0.63,-1.09 1.51,-2.04 2.47,-2.6l30.72 -17.7 31.37 -18.08 0 -0 -62.08 35.78c-0.96,0.56 -1.84,1.51 -2.47,2.6l0 0zm70.1 -41.58l0 -0 0 -0 -0 0 0 0z"/>
   <path class="fil14" d="M76.78 267.03l29.88 -17.23c0.2,-0.12 0.4,-0.21 0.6,-0.28 -0.18,0.07 -0.36,0.15 -0.55,0.25 -0.02,0.01 -0.03,0.02 -0.05,0.03l-29.89 17.23 0 0z"/>
   <polygon class="fil34" points="71.23,270.22 76.78,267.03 76.78,267.03 71.23,270.22 "/>
   <path class="fil15" d="M6.68 308.61c0.64,-1.09 1.51,-2.05 2.47,-2.6l62.08 -35.78 5.54 -3.19 0 -0 29.89 -17.23c0.02,-0.01 0.03,-0.02 0.05,-0.03 0.19,-0.1 0.37,-0.19 0.55,-0.26 0.34,-0.13 0.67,-0.19 0.97,-0.19 0.25,0 0.48,0.04 0.69,0.13 0.03,0.01 0.05,0.02 0.08,0.03 -0,0 -0.01,-0 -0.01,-0 -0.84,-0.45 -4.77,-2.67 -5.39,-3.04 -0.29,-0.17 -0.63,-0.27 -1,-0.27 -0.47,0 -1,0.15 -1.56,0.48l-24.27 13.98 -0 0 -5.54 3.19 -67.71 39.02c-0.6,0.34 -1.16,0.84 -1.65,1.43 -0.29,0.35 -0.56,0.74 -0.79,1.14l0 0 5.6 3.19z"/>
   <path class="fil10" d="M6.68 308.61c0.63,-1.09 1.52,-2.04 2.48,-2.6l30.71 -17.7 -30.72 17.7c-0.96,0.56 -1.84,1.51 -2.47,2.6l0 0zm102.35 -59.12c-0,-0 -0.01,-0 -0.01,-0.01 -0.03,-0.01 -0.05,-0.02 -0.08,-0.03 0.03,0.01 0.06,0.03 0.09,0.04z"/>
   <path class="fil16" d="M5.62 323.64l0 -11.52 0 11.52 -5.62 -3.25 0 -11.44c0,-0.34 0.04,-0.69 0.1,-1.04 -0.07,0.35 -0.11,0.7 -0.11,1.04l-0 11.46 0 0 0 -0.02 5.62 3.25 0 0z"/>
   <path class="fil35" d="M5.63 323.64l0 0 -0 -11.53c0,-1.13 0.4,-2.38 1.04,-3.49l-0 0c-0.65,1.11 -1.05,2.36 -1.05,3.49l0 11.52 0.01 0z"/>
   <path class="fil18" d="M5.62 323.64l0 -11.52c0,-1.13 0.4,-2.38 1.05,-3.49l-5.59 -3.2c-0.46,0.79 -0.8,1.64 -0.97,2.48 -0.07,0.35 -0.1,0.71 -0.1,1.04l0 11.44 5.62 3.25z"/>
   <path class="fil19" d="M5.63 323.64l0 -11.53c0,-1.14 0.4,-2.39 1.05,-3.5l-0 -0c0,0 -0,0.01 -0.01,0.01l0 0c-0.65,1.11 -1.04,2.36 -1.04,3.49l0 11.53z"/>
   <path class="fil36" d="M6.67 308.62c0,-0 0,-0.01 0.01,-0.01l0 0c-0,0 -0.01,0.01 -0.01,0.01l0 0z"/>
   <path class="fil20" d="M6.67 308.62c0,-0 0,-0.01 0.01,-0.01l-5.6 -3.19 5.59 3.2z"/>
   <path class="fil20" d="M6.67 308.62c0,-0 0.01,-0.01 0.01,-0.01l0 -0c-0,0 -0,0.01 -0.01,0.01l0 0z"/>
   <path class="fil2" d="M10.75 310.75c-1.1,0.64 -1.99,2.53 -1.99,4.22 0,1.7 0.89,2.55 1.99,1.92 1.1,-0.64 1.99,-2.52 1.99,-4.22 0,-1.69 -0.89,-2.55 -1.99,-1.92z"/>
   <path class="fil2" d="M17.92 306.6c-1.1,0.64 -1.99,2.52 -1.99,4.22 0,1.69 0.89,2.55 1.99,1.92 1.1,-0.63 1.99,-2.52 1.99,-4.22 0,-1.69 -0.89,-2.55 -1.99,-1.92z"/>
   <path class="fil2" d="M25.09 302.45c-1.1,0.64 -1.99,2.52 -1.99,4.22 0,1.69 0.89,2.55 1.99,1.91 1.1,-0.63 1.99,-2.52 1.99,-4.22 0,-1.69 -0.89,-2.55 -1.99,-1.92z"/>
   <path class="fil37" d="M6.92 483.96l-0.08 -0.08 -0.2 -0.17c-0.28,-0.26 -0.49,-0.57 -0.65,-0.93l0 0c-0.23,-0.52 -0.37,-1.13 -0.37,-1.78l0 -157.36 -5.62 -3.23 0 157.42c0,0.68 0.15,1.33 0.41,1.86 0.12,0.28 0.29,0.52 0.47,0.72 0.17,0.21 0.38,0.37 0.6,0.49 0.07,0.03 0.23,0.12 0.44,0.24 0.21,0.12 1.59,0.88 1.89,1.05 0.29,0.16 0.6,0.35 0.93,0.53l0.05 0.03 0.59 0.34 0.01 0.01c0.39,0.21 0.77,0.41 1.09,0.61l0.44 0.25z"/>
   <path class="fil38" d="M6 482.78c-0.21,-0.5 -0.34,-1.09 -0.37,-1.78 0,0.65 0.14,1.26 0.37,1.78z"/>
   <polygon class="fil39" points="5.62,323.64 5.62,323.64 0,320.39 0,320.41 5.62,323.64 "/>
   <path class="fil4" d="M102.09 282.86c0,-0.21 -0.06,-0.36 -0.18,-0.45l-2.53 -2.32 -0.12 -0.02 -0.06 0.03 -0.2 0.24 -0.08 0.36 0 1.76c0,0.22 0.02,0.39 0.05,0.48l0.18 0.27 1.33 1.23 -1.33 2.77 -0.18 0.48c-0.04,0.14 -0.05,0.32 -0.05,0.54l0 1.76 0.08 0.26 0.2 0.01 0.06 -0.05 0.12 -0.16 2.53 -5.24c0.12,-0.23 0.18,-0.45 0.18,-0.66l0 -1.31z"/>
   <polygon class="fil4" points="92.82,280.41 92.63,280.11 92.26,280.14 91.31,280.69 91.1,280.94 91.02,281.29 91.05,281.45 95.39,294.96 95.58,295.25 95.96,295.22 96.87,294.7 97.07,294.45 97.15,294.1 97.13,293.94 "/>
   <path class="fil4" d="M86.1 293.4c0,0.21 0.06,0.36 0.18,0.45l2.53 2.32 0.12 0.02 0.06 -0.02 0.2 -0.25 0.08 -0.35 0 -1.76c0,-0.23 -0.02,-0.39 -0.05,-0.49l-0.18 -0.27 -1.34 -1.23 1.34 -2.77 0.18 -0.48c0.03,-0.14 0.05,-0.32 0.05,-0.54l0 -1.76 -0.08 -0.26 -0.2 -0.01 -0.06 0.05 -0.12 0.15 -2.53 5.25c-0.12,0.23 -0.18,0.45 -0.18,0.66l0 1.31z"/>
   <polygon class="fil4" points="79.05,300.31 78.81,300.61 78.7,301.05 78.7,302.99 78.81,303.31 79.05,303.32 80.25,302.63 80.49,302.33 80.6,301.9 80.6,299.96 80.49,299.64 80.25,299.62 "/>
   <polygon class="fil4" points="75.05,302.62 74.81,302.92 74.71,303.36 74.71,305.3 74.81,305.61 75.05,305.63 76.25,304.94 76.49,304.64 76.59,304.21 76.59,302.27 76.49,301.95 76.25,301.93 "/>
   <polygon class="fil4" points="71.06,304.93 70.81,305.23 70.71,305.67 70.71,307.61 70.81,307.93 71.06,307.94 72.25,307.25 72.49,306.95 72.6,306.51 72.6,304.58 72.49,304.26 72.25,304.24 "/>
   <path class="fil4" d="M101.02 298.23l-58.59 33.83c-0.69,0.4 -1.25,1.33 -1.25,2.08 0,0.75 0.56,1.03 1.25,0.64l58.59 -33.83c0.69,-0.4 1.25,-1.33 1.25,-2.08 0,-0.75 -0.56,-1.03 -1.25,-0.63z"/>
   <path class="fil5" d="M82.23 341.65l-58.59 33.83c-0.69,0.4 -1.25,1.33 -1.25,2.08 0,0.75 0.56,1.03 1.25,0.63l58.59 -33.83c0.69,-0.4 1.25,-1.33 1.25,-2.08 0,-0.75 -0.56,-1.03 -1.25,-0.63z"/>
   <path class="fil5" d="M82.23 363.35l-28.05 16.2c-0.69,0.4 -1.25,1.33 -1.25,2.08 0,0.75 0.56,1.03 1.25,0.64l28.05 -16.2c0.69,-0.4 1.25,-1.33 1.25,-2.08 0,-0.75 -0.56,-1.04 -1.25,-0.64z"/>
   <path class="fil4" d="M37.58 334.86l-23.34 13.43c-0.69,0.4 -1.25,1.33 -1.25,2.08 0,0.75 0.56,1.03 1.25,0.63l23.34 -13.43c0.69,-0.4 1.25,-1.33 1.25,-2.08 0,-0.75 -0.56,-1.03 -1.25,-0.63z"/>
   <path class="fil4" d="M101.02 417.61l-58.59 33.83c-0.69,0.4 -1.25,1.33 -1.25,2.08 0,0.75 0.56,1.03 1.25,0.63l58.59 -33.83c0.69,-0.4 1.25,-1.33 1.25,-2.08 0,-0.75 -0.56,-1.03 -1.25,-0.63z"/>
   <path class="fil4" d="M37.58 454.24l-23.34 13.43c-0.69,0.4 -1.25,1.33 -1.25,2.08 0,0.75 0.56,1.03 1.25,0.63l23.34 -13.43c0.69,-0.4 1.25,-1.33 1.25,-2.08 0,-0.75 -0.56,-1.03 -1.25,-0.63z"/>
   <path class="fil4" d="M37.58 421.74l-23.34 13.43c-0.69,0.4 -1.25,1.33 -1.25,2.08 0,0.75 0.56,1.03 1.25,0.63l23.34 -13.43c0.69,-0.4 1.25,-1.33 1.25,-2.08 0,-0.75 -0.56,-1.03 -1.25,-0.64z"/>
   <path class="fil4" d="M37.58 432.59l-23.34 13.43c-0.69,0.4 -1.25,1.33 -1.25,2.08 0,0.75 0.56,1.03 1.25,0.63l23.34 -13.43c0.69,-0.4 1.25,-1.33 1.25,-2.08 0,-0.75 -0.56,-1.03 -1.25,-0.63z"/>
   <path class="fil4" d="M57.49 410.21l-13.12 7.57c-0.69,0.4 -1.25,1.33 -1.25,2.08 0,0.75 0.56,1.03 1.25,0.63l13.12 -7.57c0.69,-0.4 1.25,-1.33 1.25,-2.08 0,-0.75 -0.56,-1.03 -1.25,-0.63z"/>
   <path class="fil4" d="M101.02 309.11l-34.17 19.72c-0.69,0.4 -1.25,1.33 -1.25,2.08 0,0.75 0.56,1.03 1.25,0.63l34.17 -19.71c0.69,-0.4 1.25,-1.33 1.25,-2.08 0,-0.75 -0.56,-1.03 -1.25,-0.63z"/>
   <path class="fil23" d="M66.26 331.72c0.18,0 0.38,-0.06 0.59,-0.18l4.38 -2.53 5.54 -3.2 0 -0 24.24 -13.99c0.63,-0.36 1.15,-1.16 1.24,-1.86 0.01,-0.07 0.02,-0.15 0.02,-0.22 0,-0.52 -0.27,-0.81 -0.66,-0.81 -0.18,0 -0.38,0.06 -0.59,0.18l-34.17 19.72c-0.69,0.4 -1.25,1.33 -1.25,2.08 0,0.52 0.27,0.81 0.66,0.81z"/>
   <path class="fil4" d="M101.02 319.95l-11.59 6.68c-0.69,0.4 -1.25,1.33 -1.25,2.08 0,0.75 0.56,1.03 1.25,0.63l11.59 -6.69c0.69,-0.4 1.25,-1.33 1.25,-2.08 0,-0.75 -0.56,-1.03 -1.25,-0.63z"/>
   <path class="fil23" d="M88.84 329.52c0.18,0 0.37,-0.06 0.59,-0.18l5.98 -3.45 5.62 -3.24c0.69,-0.4 1.25,-1.33 1.25,-2.08 0,-0.52 -0.27,-0.81 -0.66,-0.81 -0.18,0 -0.38,0.06 -0.59,0.18l-11.59 6.68c-0.69,0.4 -1.25,1.33 -1.25,2.08 0,0.52 0.27,0.81 0.67,0.81z"/>
   <path class="fil4" d="M101.02 330.8l-11.59 6.68c-0.69,0.4 -1.25,1.33 -1.25,2.08 0,0.75 0.56,1.03 1.25,0.63l11.59 -6.69c0.69,-0.4 1.25,-1.33 1.25,-2.08 0,-0.75 -0.56,-1.03 -1.25,-0.63z"/>
   <path class="fil23" d="M88.84 340.38c0.18,0 0.37,-0.06 0.59,-0.18l11.59 -6.69c0.69,-0.4 1.25,-1.33 1.25,-2.08 0,-0.52 -0.27,-0.81 -0.66,-0.81 -0.18,0 -0.38,0.06 -0.59,0.18l-11.59 6.68c-0.69,0.4 -1.25,1.33 -1.25,2.08 0,0.52 0.27,0.82 0.67,0.82z"/>
   <path class="fil4" d="M101.02 341.65l-11.59 6.69c-0.69,0.4 -1.25,1.33 -1.25,2.08 0,0.75 0.56,1.03 1.25,0.63l11.59 -6.69c0.69,-0.4 1.25,-1.33 1.25,-2.08 0,-0.75 -0.56,-1.03 -1.25,-0.63z"/>
   <path class="fil24" d="M88.18 350.41c0,-0.75 0.56,-1.68 1.25,-2.08l11.59 -6.69c0.21,-0.12 0.41,-0.18 0.59,-0.18 0.4,0 0.66,0.29 0.66,0.81 0,-0 0,-0 0,-0 0,-0.52 -0.27,-0.81 -0.66,-0.81 -0.18,0 -0.38,0.06 -0.59,0.18l-11.59 6.69c-0.69,0.4 -1.25,1.33 -1.25,2.08l0 0z"/>
   <path class="fil23" d="M88.84 351.23c0.18,0 0.37,-0.06 0.59,-0.18l11.59 -6.69c0.69,-0.4 1.25,-1.33 1.25,-2.08 0,-0.52 -0.27,-0.81 -0.66,-0.81 -0.18,0 -0.38,0.06 -0.59,0.18l-11.59 6.69c-0.69,0.4 -1.25,1.33 -1.25,2.08 0,0.52 0.27,0.81 0.67,0.81z"/>
   <path class="fil40" d="M47.46 375.11c0.18,0 0.38,-0.06 0.59,-0.18l23.18 -13.37 0 -2.71 -23.18 13.37c-0.69,0.4 -1.25,1.33 -1.25,2.08 0,0.52 0.27,0.82 0.66,0.82zm29.31 -16.75l0 -0 0 -2.71 -0 0 0 2.71z"/>
   <path class="fil41" d="M76.78 358.36l5.45 -3.14c0.69,-0.4 1.25,-1.33 1.25,-2.08 0,-0.52 -0.27,-0.81 -0.66,-0.81 -0.18,0 -0.37,0.06 -0.59,0.18l-5.45 3.14 0 2.71z"/>
   <polygon class="fil41" points="71.23,361.55 76.78,358.36 76.78,355.64 71.23,358.84 "/>
   <path class="fil40" d="M27.75 386.52c0.18,0 0.38,-0.06 0.59,-0.18l14.86 -8.61c0.69,-0.4 1.25,-1.33 1.25,-2.08 0,-0.52 -0.27,-0.81 -0.67,-0.81 -0.17,0 -0.37,0.06 -0.59,0.18l-14.86 8.61c-0.69,0.4 -1.25,1.33 -1.25,2.08 0,0.52 0.27,0.82 0.66,0.82z"/>
   <path class="fil4" d="M101.02 352.5l-11.59 6.69c-0.69,0.4 -1.25,1.33 -1.25,2.08 0,0.75 0.56,1.03 1.25,0.63l11.59 -6.69c0.69,-0.4 1.25,-1.33 1.25,-2.08 0,-0.75 -0.56,-1.03 -1.25,-0.63z"/>
   <path class="fil23" d="M88.84 362.08c0.18,0 0.37,-0.06 0.59,-0.18l11.59 -6.69c0.69,-0.4 1.25,-1.33 1.25,-2.08 0,-0.52 -0.27,-0.82 -0.66,-0.82 -0.18,0 -0.38,0.06 -0.59,0.18l-11.59 6.69c-0.69,0.4 -1.25,1.33 -1.25,2.08 0,0.52 0.27,0.82 0.67,0.82z"/>
   <path class="fil4" d="M62 331.63l-14.86 8.61c-0.69,0.4 -1.25,1.33 -1.25,2.08 0,0.75 0.56,1.03 1.25,0.63l14.86 -8.61c0.69,-0.4 1.25,-1.33 1.25,-2.08 0,-0.75 -0.56,-1.03 -1.25,-0.64z"/>
   <path class="fil23" d="M46.55 343.13c0.18,0 0.38,-0.06 0.59,-0.18l14.86 -8.61c0.69,-0.4 1.25,-1.33 1.25,-2.08 0,-0.52 -0.27,-0.82 -0.66,-0.82 -0.17,0 -0.37,0.06 -0.59,0.18l-14.86 8.61c-0.69,0.4 -1.25,1.33 -1.25,2.08 0,0.52 0.27,0.81 0.66,0.81z"/>
   <path class="fil9" d="M68.13 382.33l-34.18 19.72c-0.69,0.4 -1.25,1.33 -1.25,2.08 0,0.75 0.56,1.03 1.25,0.63l34.18 -19.71c0.69,-0.4 1.25,-1.33 1.25,-2.08 0,-0.75 -0.56,-1.03 -1.25,-0.63z"/>
   <path class="fil9" d="M48.41 404.61l-34.17 19.72c-0.69,0.4 -1.26,1.33 -1.26,2.08 0,0.75 0.56,1.03 1.26,0.63l34.17 -19.71c0.69,-0.4 1.25,-1.33 1.25,-2.08 0,-0.75 -0.56,-1.03 -1.25,-0.63z"/>
   <path class="fil9" d="M29.1 404.85l-14.86 8.61c-0.69,0.4 -1.25,1.33 -1.25,2.08 0,0.75 0.56,1.03 1.25,0.64l14.86 -8.61c0.69,-0.4 1.25,-1.33 1.25,-2.08 0,-0.75 -0.56,-1.03 -1.25,-0.63z"/>
   <path class="fil5" d="M29.1 447.84l-14.86 8.61c-0.69,0.4 -1.25,1.33 -1.25,2.08 0,0.75 0.56,1.03 1.25,0.63l14.86 -8.61c0.69,-0.4 1.25,-1.33 1.25,-2.08 0,-0.75 -0.56,-1.03 -1.25,-0.63z"/>
   <path class="fil4" d="M82.23 330.8l-34.18 19.71c-0.69,0.4 -1.25,1.33 -1.25,2.08 0,0.75 0.56,1.03 1.25,0.63l34.18 -19.72c0.69,-0.4 1.25,-1.33 1.25,-2.08 0,-0.75 -0.56,-1.03 -1.25,-0.63z"/>
   <path class="fil23" d="M47.46 353.41c0.18,0 0.38,-0.06 0.59,-0.18l23.18 -13.37 5.54 -3.2 0 -0 5.45 -3.14c0.69,-0.4 1.25,-1.33 1.25,-2.08 0,-0.52 -0.27,-0.81 -0.66,-0.81 -0.18,0 -0.37,0.06 -0.59,0.18l-34.18 19.71c-0.69,0.4 -1.25,1.33 -1.25,2.08 0,0.52 0.27,0.81 0.66,0.81z"/>
   <path class="fil4" d="M43.2 353.32l-14.86 8.61c-0.69,0.4 -1.25,1.33 -1.25,2.08 0,0.75 0.56,1.03 1.25,0.63l14.86 -8.61c0.69,-0.4 1.25,-1.33 1.25,-2.08 0,-0.75 -0.56,-1.03 -1.25,-0.63z"/>
   <path class="fil23" d="M27.75 364.82c0.18,0 0.38,-0.06 0.59,-0.18l14.86 -8.61c0.69,-0.4 1.25,-1.33 1.25,-2.08 0,-0.52 -0.27,-0.82 -0.66,-0.82 -0.17,0 -0.37,0.06 -0.59,0.18l-14.86 8.61c-0.69,0.4 -1.25,1.33 -1.25,2.08 0,0.52 0.27,0.81 0.66,0.81z"/>
   <path class="fil42" d="M244.8 492.28c3.74,0 7.44,-0.83 10.39,-2.54l20.95 -12.09c6.6,-3.81 6.43,-9.67 -0.39,-13.09l-42.65 -23.13c-3.16,-1.58 -7.18,-2.36 -11.25,-2.36 -4.71,0 -9.49,1.05 -13.03,3.1l-10.5 6.08c-6.6,3.82 -6.94,10.56 -0.78,15.04l34.55 25.23c3.41,2.48 8.1,3.76 12.72,3.76z"/>
   <path class="fil25" d="M196.96 452.34l23.91 18.69 17.64 13.8c1.71,0.8 3.67,1.24 5.63,1.35 2.98,0.17 6.02,-0.41 8.37,-1.77l18.74 -10.82 0.03 -0.03 0.11 -0.06c6.58,-3.83 8.13,-12.71 3.79,-18.97 -0.18,-0.26 -0.36,-0.52 -0.55,-0.77 -3.56,-4.8 -8.86,-8.28 -15.07,-9.55l-9.5 -1.9c-15.38,-3.12 -27.99,-4.64 -29.45,-3.65l-23.49 13.61 -0.14 0.06z"/>
   <path class="fil4" d="M210.32 462.79l-1.34 -1.05 21.08 -12.17 -18.44 -5.71c0.64,-0.37 1.26,-0.73 1.87,-1.08l18.44 5.71 12.57 -7.26c0.79,0.15 1.58,0.3 2.38,0.45l-36.55 21.11z"/>
   <path class="fil43" d="M236.43 483.7l-0.11 -0.08 -0.03 -0.03 -16.78 -12.12 -22.66 -16.37 0 -2.57 0.11 -0.19 0.14 -0.06c1.68,-0.58 11.51,2.37 23.38,7.1l7.87 3.12c2.46,0.97 4.72,2.32 6.71,3.97 5.66,4.66 9.08,11.71 9.08,19.3l0 0.41c-1.96,-0.11 -3.92,-0.55 -5.63,-1.35l-2.07 -1.13z"/>
   <path class="fil44" d="M559.96 425.23l-0.02 -0.03c-0.13,-0.2 -0.27,-0.41 -0.4,-0.61 0.14,0.21 0.28,0.42 0.42,0.64z"/>
   <path class="fil45" d="M578.92 454.13c-5.95,-9.19 -12.47,-19.14 -18.55,-28.29l0 0c3.8,5.72 7.78,11.76 11.68,17.73 0.63,0.97 1.27,1.94 1.9,2.91 1.68,2.58 3.35,5.14 4.96,7.64l0 0z"/>
   <path class="fil46" d="M560.37 425.84l0 0c-0.14,-0.21 -0.27,-0.41 -0.41,-0.62l0.03 0.04c0.12,0.19 0.25,0.38 0.38,0.58z"/>
   <path class="fil46" d="M559.54 424.59c-1.74,-2.62 -3.44,-5.17 -5.08,-7.6l0 0c0.53,0.78 1.07,1.6 1.61,2.4 1.14,1.7 2.29,3.43 3.47,5.2z"/>
   <path class="fil47" d="M554.46 416.99l0 0c-0,-0 -0.01,-0.01 -0.01,-0.01 -0,-0 -0,-0.01 -0.01,-0.01l0 0.01c0,0 0.01,0.01 0.01,0.01z"/>
   <g>
    <path class="fil4" d="M538.01 217.56l10.1 -19 -8.13 -23.46 0 -14.36 24.88 14.36 0 14.36 -10.7 18.53c-0.18,0.31 -0.44,0.52 -0.73,0.65l0.01 0.01 -15.43 8.92z"/>
    <path class="fil48" d="M538.12 217.5l15.32 -8.86 -0.01 -0.01 0 0c0.29,-0.13 0.55,-0.33 0.73,-0.65l2.87 -4.97 -7.8 -4.5 -10.67 18.49c-0.12,0.21 -0.27,0.37 -0.45,0.5z"/>
    <path class="fil49" d="M478.59 46.55c0,-4.76 3.34,-10.54 7.46,-12.92l6.07 -3.5c1.61,-0.93 3.61,-1.49 5.69,-1.7l3.53 0c2.08,0.2 4.09,0.77 5.69,1.7l93.14 53.87c4.12,2.38 7.46,8.16 7.46,12.92l0 102.47c0,4.76 -3.34,10.54 -7.46,12.92l-6.08 3.51c-4.12,2.38 -10.8,2.38 -14.91,0l-29.95 -17.31 -10.67 18.49c-0.68,1.18 -2.44,1.01 -2.88,-0.28l-11.28 -32.56 -38.34 -22.21c-4.12,-2.38 -7.46,-8.16 -7.46,-12.92l0 -102.48z"/>
    <path class="fil50" d="M593.41 216.19l0 0 0 0zm0.05 -0.02c0.02,-0.01 0.03,-0.01 0.04,-0.02 -0.01,0.01 -0.03,0.01 -0.04,0.02zm0.05 -0.02c0.2,-0.1 0.4,-0.21 0.59,-0.32l6.08 -3.51c4.12,-2.38 7.46,-8.16 7.46,-12.92l0 0c0,4.76 -3.34,10.54 -7.46,12.92l-6.08 3.51c-0.19,0.11 -0.39,0.22 -0.59,0.32z"/>
    <path class="fil48" d="M586.7 217.59c2.39,0 4.77,-0.47 6.72,-1.41l0 0c0.02,-0.01 0.03,-0.02 0.05,-0.02 0.02,-0.01 0.03,-0.01 0.04,-0.02 0,-0 0,-0 0.01,-0 0.2,-0.1 0.4,-0.21 0.59,-0.32l6.08 -3.51c4.12,-2.38 7.46,-8.16 7.46,-12.92l0 -102.47c0,-2.38 -0.84,-5.01 -2.19,-7.35l-0.03 0.01c0,0 0,0 0,0l-10.41 6.01 -10.56 6.1c1.35,2.34 2.18,4.97 2.18,7.35l0 102.48c0,3.37 -1.68,5.32 -4.13,5.32 -0.64,0 -1.33,-0.13 -2.06,-0.41 1.85,0.78 4.04,1.17 6.23,1.17z"/>
    <path class="fil9" d="M524.96 40.49l-17.9 -10.36c-0.21,-0.12 -0.43,-0.24 -0.65,-0.34 0.22,0.11 0.43,0.22 0.64,0.34l17.92 10.36zm-44.03 -1.54c1.05,-1.75 2.39,-3.32 3.87,-4.47 -1.49,1.15 -2.83,2.72 -3.87,4.47z"/>
    <path class="fil51" d="M584.45 101.69l10.57 -6.11 10.41 -6.01c-1.36,-2.36 -3.2,-4.38 -5.25,-5.56l-75.22 -43.52 -17.92 -10.36c-0.21,-0.12 -0.42,-0.23 -0.64,-0.34 -1.53,-0.74 -3.33,-1.19 -5.19,-1.36l-3.25 0c-2.14,0.19 -4.19,0.76 -5.83,1.7l-6.09 3.51c-0.42,0.24 -0.84,0.52 -1.24,0.83 -1.49,1.15 -2.82,2.72 -3.87,4.47 -1.03,1.73 -1.77,3.63 -2.09,5.48 0.57,-2.06 1.99,-3.21 3.87,-3.21 1,0 2.13,0.33 3.33,1.02l93.15 53.88c2.05,1.18 3.93,3.2 5.25,5.57z"/>
    <path class="fil52" d="M595.02 95.59l10.41 -6.01c0,0 0,0 -0,-0l-10.41 6.01z"/>
    <g>
     <path class="fil53" d="M498.55 100.24c-1.21,-12.01 3.1,-18.24 9.12,-19.05 5.98,-0.81 13.66,3.75 19.31,13.27 2.78,4.7 5.55,10.93 6.38,18.53 0.81,7.46 -1.23,13.16 -3.66,15.94 -0.71,0.6 -1.42,1.2 -2.12,1.8 -2.22,1.45 -5.89,1.63 -9.1,0.4 -10.26,-3.88 -18.67,-18.48 -19.93,-30.89zm17.8 -26.79c-1.18,-0.63 -2.35,-1.25 -3.53,-1.87 -0.53,-2.38 -1.75,-5.31 -2.65,-7.55 -1.78,-0.7 -5.43,-1.42 -6.78,-0.86 0.08,2.38 0.16,4.75 0.25,7.13 -3.5,1.52 -3.54,-0.27 -7.32,-5.04 -1.54,0.28 -4.16,2.53 -4.96,4.41 0.99,2.52 1.97,5.03 2.93,7.54 -0.53,0.97 -1.05,1.93 -1.57,2.9 -1.77,-0.91 -3.54,-1.82 -5.3,-2.74 -1,2 -1.42,5.91 -1.6,8.91 1.64,1.51 3.74,3.98 4.97,5.91 0.04,1.42 0.07,2.83 0.13,4.24 -1.52,0.39 -3.04,0.77 -4.54,1.16 0.3,3.53 1.14,7.1 2.2,10.43 1.89,0.93 3.77,1.84 5.64,2.76 2.93,8.72 0.6,3.81 -0.83,9.98 1.74,2.98 3.04,5.79 5.39,8.8 3.4,0.01 3.67,-3.29 6.38,0.88 1.46,2.24 0.99,2.89 1.28,8.73 2.3,1.91 4.6,3.82 6.89,5.72 0.87,-1.73 1.73,-3.45 2.61,-5.17 1.05,0.52 2.11,1.03 3.17,1.56 0.72,1.94 2.16,5.36 2.56,7.39 2.97,1.15 4.65,0.57 7.03,1.18 -0.12,-2.65 -0.25,-5.3 -0.37,-7.96 1.87,0.16 1.97,-1.18 3.62,0.72 1.37,1.58 2.29,2.97 3.73,4.52 1.77,-0.8 3.29,-2.4 4.55,-4.36 -0.62,-2.14 -1.73,-4.85 -2.72,-7.32 1.44,-4.89 2.01,-2.3 6.42,-0.62 1.06,-1.86 1.43,-5.18 1.47,-8.16 -1.52,-1.94 -3.04,-3.89 -4.55,-5.84 -0.06,-1.4 -0.12,-2.81 -0.16,-4.22 1.55,-0.9 3,-0.5 4.29,-1.78 -0.41,-3.14 -1.13,-6.91 -2.22,-9.76 -1.7,-0.86 -3.39,-1.73 -5.09,-2.6 -0.57,-1.46 -1.15,-2.92 -1.71,-4.38 0.8,-1.65 1.6,-3.29 2.41,-4.94 -1.1,-3.02 -3.32,-6.41 -5.09,-9.23 -1.77,-0.04 -2.77,1.08 -4.7,1.03 -0.89,-1.13 -1.79,-2.27 -2.67,-3.4 -0.31,-7.07 1.08,-7.66 -7.31,-13.24 -0.75,1.71 -1.48,3.43 -2.2,5.14z"/>
     <path class="fil53" d="M573.92 173.98c-0.97,8.77 -8.52,12.37 -16.54,5.71 -8.3,-6.88 -12.6,-20.15 -10.94,-28.95 0.44,-2.36 1.16,-4.07 2.15,-5.38 1.35,-1.82 1.46,-2.21 3.4,-3.01 4.74,-1.96 10.94,1.29 16.15,8.73 4.66,6.64 6.62,15.38 5.78,22.89zm-17.07 -37.56c-0.95,-0.24 -1.9,-0.49 -2.83,-0.74 -0.88,-1.64 -1.75,-3.29 -2.63,-4.95 -1.37,0.2 -2.75,0.39 -4.12,0.59 0.33,2.05 0.68,4.1 1.02,6.14 -3.25,1.74 -1.36,1.58 -6.01,-2.05 -0.74,1.75 -1.62,2.31 -2.07,5.01 0.85,1.43 1.72,2.85 2.59,4.27 -0.36,5.1 -0.97,3.47 -4.32,2.96 -0.02,2.13 -0.03,4.25 -0.04,6.37 1.21,1.08 2.42,2.15 3.63,3.22 1.99,6.23 0.11,4.69 -1.6,6.82 0.51,2.24 1.51,4.58 2.07,6.55 1.41,0.27 2.82,0.54 4.24,0.81 0.57,1.23 1.15,2.46 1.74,3.7 -0.33,1.65 -0.63,3.3 -0.95,4.95 1.36,1.65 2.72,3.3 4.08,4.95 2.05,-1.7 2.05,-2.86 3.88,-1.18 0.01,0 0.76,0.79 0.86,0.91 1.2,1.41 1.04,2.17 1.87,6.13 1.42,0.76 2.85,1.53 4.28,2.29 0.22,-0.38 0.23,-0.31 0.46,-0.95 0.23,-1.16 0.46,-2.32 0.69,-3.48 1.03,0.19 2.05,0.37 3.08,0.56 0.84,1.65 1.68,3.3 2.52,4.95 1.6,-0.28 2.49,-0.57 3.82,-1.01 -0.12,-1.3 -0.75,-3.98 -0.77,-4.74 -0.04,-1.43 0.93,-1.37 1.6,-2.55 1.25,1.05 2.51,2.11 3.77,3.16 0.76,-1.32 1.52,-2.64 2.27,-3.96 -0.86,-1.63 -1.74,-3.28 -2.62,-4.93 0.65,-4.37 0.68,-4.08 4.31,-2.85 0,-2.2 0,-4.4 0.01,-6.6 -3.34,-2.58 -3.93,-2.52 -4.35,-7.38 0.78,-0.57 1.57,-1.14 2.35,-1.7 -0.33,-2.79 -1.21,-4.89 -2.33,-7.12 -1.13,-0.23 -2.26,-0.46 -3.39,-0.69 -0.69,-1.28 -1.37,-2.57 -2.06,-3.85 0.29,-1.41 0.59,-2.81 0.88,-4.22 -0.93,-1.87 -2.83,-4.33 -4.32,-5.67 -2.53,3.19 -2.4,2.1 -5.12,-0.27 -0.33,-1.81 -0.66,-3.63 -0.98,-5.44 -4.72,-3.36 -4.92,-3.44 -5.5,2z"/>
     <path class="fil53" d="M557.97 150.43c10.56,1.55 14.58,25.13 4.67,23.78 -10.35,-1.42 -15.04,-25.29 -4.67,-23.78zm-0.64 -7.06c-8.81,-2.04 -11.55,6.77 -9.92,16.53 1.63,9.75 7.65,20.39 16.3,22.07 3.72,0.72 5.89,-0.77 7.51,-3.27 3.38,-5.23 2.78,-13.39 -0.09,-20.56 -2.87,-7.19 -8.05,-13.44 -13.81,-14.78z"/>
     <path class="fil53" d="M513 88.94c7.9,1.67 13.34,11.36 14.84,20.15 1.49,8.79 -0.91,16.78 -8.82,15.05 -7.67,-1.67 -13.25,-11.29 -14.86,-20.1 -1.61,-8.84 0.73,-16.8 8.84,-15.1zm-0.12 -5.55c-3.94,-1.2 -7.67,-0.21 -10.17,2.86 -2.5,3.08 -3.75,8.26 -2.76,15.44 1.81,12.93 10.42,25.24 19.1,27.91 3.97,1.23 7.69,0.13 10.17,-3 2.47,-3.12 3.72,-8.31 2.76,-15.28 -1.58,-11.43 -9.09,-24.91 -19.1,-27.94z"/>
     <path class="fil54" d="M512.88 83.39c10.01,3.03 17.52,16.52 19.1,27.94 0.96,6.97 -0.29,12.15 -2.76,15.28 -2.48,3.13 -6.2,4.22 -10.17,3 -8.68,-2.67 -17.29,-14.98 -19.1,-27.91 -1,-7.18 0.26,-12.36 2.76,-15.44 2.5,-3.07 6.23,-4.06 10.17,-2.86zm-14.32 16.86c1.26,12.41 9.66,27.01 19.93,30.89 3.2,1.22 6.87,1.05 9.1,-0.4 0.7,-0.6 1.41,-1.2 2.12,-1.8 2.43,-2.78 4.47,-8.48 3.66,-15.94 -0.83,-7.6 -3.6,-13.82 -6.38,-18.53 -5.65,-9.52 -13.33,-14.08 -19.31,-13.27 -6.01,0.81 -10.32,7.04 -9.12,19.05z"/>
     <path class="fil55" d="M557.32 143.37c5.76,1.33 10.94,7.59 13.81,14.78 2.87,7.17 3.46,15.33 0.09,20.56 -1.62,2.5 -3.79,3.99 -7.51,3.27 -8.66,-1.68 -14.67,-12.33 -16.3,-22.07 -1.63,-9.76 1.11,-18.57 9.92,-16.53zm16.6 30.62c0.84,-7.51 -1.12,-16.25 -5.78,-22.89 -5.21,-7.44 -11.42,-10.7 -16.15,-8.73 -1.95,0.8 -2.05,1.19 -3.4,3.01 -0.99,1.31 -1.71,3.02 -2.15,5.38 -1.66,8.79 2.64,22.06 10.94,28.95 8.02,6.65 15.58,3.06 16.54,-5.71z"/>
    </g>
   </g>
   <path class="fil4" d="M667.88 314.84l6.57 -12.36 -5.29 -15.27 0 -9.35 16.19 9.35 0 9.35 -6.96 12.06c-0.12,0.2 -0.28,0.34 -0.47,0.42l0 0.01 -10.04 5.8z"/>
   <path class="fil56" d="M667.95 314.8l9.97 -5.76 -0 -0.01 0 0c0.19,-0.08 0.36,-0.22 0.47,-0.42l1.87 -3.24 -5.07 -2.93 -6.94 12.03c-0.08,0.14 -0.18,0.24 -0.29,0.33z"/>
   <path class="fil57" d="M629.22 203.57c0,-3.1 2.17,-6.86 4.85,-8.41l3.95 -2.28c1.05,-0.6 2.35,-0.97 3.71,-1.1l2.29 0c1.36,0.13 2.66,0.5 3.71,1.1l60.61 35.05c2.68,1.55 4.85,5.31 4.85,8.41l0 66.68c0,3.1 -2.17,6.86 -4.85,8.41l-3.95 2.28c-2.68,1.55 -7.03,1.55 -9.71,0l-19.49 -11.26 -6.94 12.03c-0.44,0.77 -1.59,0.66 -1.88,-0.18l-7.34 -21.19 -24.95 -14.45c-2.68,-1.55 -4.85,-5.31 -4.85,-8.41l0 -66.68z"/>
   <path class="fil50" d="M703.93 313.95l0 0 0 0zm0.03 -0.02c0.01,-0 0.02,-0.01 0.03,-0.01 -0.01,0 -0.02,0.01 -0.03,0.01zm0.03 -0.01c0.13,-0.07 0.26,-0.14 0.39,-0.21l3.95 -2.28c2.68,-1.55 4.85,-5.31 4.85,-8.41l0 0c0,3.1 -2.17,6.86 -4.85,8.41l-3.95 2.28c-0.12,0.07 -0.25,0.14 -0.39,0.21z"/>
   <path class="fil58" d="M699.56 314.86c1.55,0 3.11,-0.3 4.37,-0.91l0 0c0.01,-0 0.02,-0.01 0.03,-0.02 0.01,-0 0.02,-0.01 0.03,-0.01 0,0 0,0 0.01,0 0.13,-0.07 0.26,-0.14 0.39,-0.21l3.95 -2.28c2.68,-1.55 4.85,-5.31 4.85,-8.41l0 -66.68c0,-1.55 -0.54,-3.26 -1.42,-4.78l-0.02 0.01c0,0 0,0 0,0l-6.77 3.91 -6.87 3.97c0.88,1.52 1.42,3.24 1.42,4.78l0 66.68c0,2.2 -1.09,3.46 -2.69,3.46 -0.41,0 -0.87,-0.09 -1.34,-0.27 1.21,0.51 2.63,0.76 4.06,0.76z"/>
   <path class="fil9" d="M659.39 199.62l-11.65 -6.74c-0.14,-0.08 -0.28,-0.15 -0.43,-0.22 0.14,0.07 0.28,0.14 0.42,0.22l11.66 6.74zm-28.65 -1c0.68,-1.14 1.55,-2.16 2.52,-2.91 -0.97,0.74 -1.84,1.77 -2.52,2.91z"/>
   <path class="fil56" d="M698.1 239.44l6.88 -3.97 6.77 -3.91c-0.88,-1.54 -2.08,-2.85 -3.42,-3.62l-48.94 -28.32 -11.66 -6.74c-0.13,-0.08 -0.27,-0.15 -0.42,-0.22 -0.99,-0.48 -2.17,-0.77 -3.38,-0.88l-2.12 0c-1.39,0.12 -2.72,0.49 -3.79,1.11l-3.96 2.29c-0.28,0.16 -0.55,0.34 -0.81,0.54 -0.97,0.75 -1.84,1.77 -2.52,2.91 -0.67,1.12 -1.15,2.36 -1.36,3.57 0.37,-1.34 1.3,-2.09 2.52,-2.09 0.65,0 1.39,0.21 2.17,0.66l60.62 35.06c1.33,0.77 2.56,2.08 3.42,3.62z"/>
   <path class="fil52" d="M704.98 235.47l6.77 -3.91c0,0 0,0 -0,0l-6.77 3.91z"/>
   <path id="LogoHorizMono" class="fil59" d="M652.97 219.03c-3.26,3.46 -6.54,6.89 -9.77,10.3 -3.23,3.4 -6.46,6.8 -9.65,10.17 7.05,4.17 14.17,8.37 21.35,12.61 7.23,4.27 14.54,8.59 21.91,12.95 -0.75,-5.84 -1.49,-11.68 -2.23,-17.51 -0.74,-5.81 -1.48,-11.63 -2.22,-17.46 -3.27,-1.86 -6.52,-3.72 -9.76,-5.57 -3.22,-1.84 -6.43,-3.67 -9.63,-5.5zm27.12 75.53c2.84,1.72 5.68,3.45 8.54,5.19 -0.62,-1.29 -1.4,-2.59 -1.81,-3.97 -0.3,-1 -0.47,-2.12 -0.64,-3.21 -0.23,-1.53 -0.46,-3.01 -0.96,-3.77 -0.47,-0.68 -0.85,-1.15 -1.21,-1.45 -0.33,-0.27 -0.66,-0.38 -1.02,-0.36 -0.36,0.01 -0.55,0.44 -0.77,0.9 -0.23,0.48 -0.47,0.98 -0.93,1.29 -0.39,0.26 -0.95,0.29 -1.51,0.33 -0.77,0.05 -1.57,0.1 -1.75,0.71 -0.16,0.51 -0.02,1.11 0.26,1.72 0.37,0.82 1.2,2.08 1.83,2.62zm8 -22.83c-1.24,-0.74 -2.49,-1.47 -3.73,-2.2 0.09,0.74 0.18,1.46 0.27,2.19 1.01,1 1.27,2.06 1.42,3.45 0.1,0.96 0.2,1.91 1.18,2.63 0.46,0.35 1.15,0.75 1.77,1.03 -0.3,-2.36 -0.6,-4.73 -0.9,-7.1zm-3.3 1.24c0.66,5.32 1.32,10.64 2,15.96 -0.4,-0.24 -0.79,-0.47 -1.18,-0.71 0.82,1.21 1.04,3.07 1.25,4.43 0.16,1.05 0.33,2.13 0.6,3.03 0.46,1.56 1.51,3.09 2.12,4.64 0.78,0.47 1.56,0.95 2.35,1.43 -0.37,-2.8 -0.72,-5.58 -1.08,-8.38 0,0 0,0 0,0 -0.59,-0.82 -1.08,-1.52 -1.39,-2.04 -0.55,-0.93 -0.84,-2.29 -1.15,-3.7 -0.41,-1.9 -0.73,-3.96 -2.31,-4.94 -0.05,-0.32 -0.09,-0.64 -0.12,-0.96 0.5,0.27 0.97,0.63 1.37,1.12 0.94,1.15 1.35,3.01 1.74,4.8 0.28,1.29 0.55,2.54 0.98,3.27 0.17,0.29 0.41,0.65 0.71,1.08 -0.53,-4.07 -1.05,-8.15 -1.57,-12.22 -0.71,-0.31 -1.51,-0.77 -2.07,-1.19 -1.4,-1.05 -1.54,-2.29 -1.68,-3.55 -0.06,-0.64 -0.24,-1.44 -0.58,-2.06zm-2.51 13.25c-2.82,-1.7 -5.62,-3.38 -8.42,-5.06 -0.47,0.36 -0.82,1.02 -1.06,1.79 -0.32,1.03 -0.44,2.25 -0.39,3.25 0.07,1.41 0.57,2.78 0.81,4.2 1.75,1.06 3.5,2.12 5.25,3.18 -0.29,-0.43 -0.56,-0.89 -0.76,-1.35 -0.4,-0.88 -0.59,-1.77 -0.35,-2.56 0.3,-0.96 1.25,-1.02 2.17,-1.09 0.51,-0.03 1.01,-0.07 1.31,-0.26 0.34,-0.23 0.56,-0.68 0.75,-1.09 0.2,-0.41 0.39,-0.81 0.69,-1.01zm-9.24 -5.55c-4.53,-2.73 -9.04,-5.44 -13.52,-8.13 0.07,0.79 0.01,1.93 0.46,2.63 0.5,0.76 1.01,0.97 1.57,1.18 0.53,0.22 1.1,0.44 1.78,1.08 1.13,1.08 1.95,3.3 2.34,4.87 0.33,1.33 0.47,2.67 0.34,3.7 2.15,1.31 4.31,2.62 6.48,3.94 -0.27,-1.37 -0.68,-2.58 -0.75,-3.97 -0.06,-1.11 0.07,-2.45 0.42,-3.58 0.22,-0.68 0.5,-1.29 0.89,-1.73zm-14.23 -8.55c-1.3,-0.78 -2.59,-1.56 -3.89,-2.34 -2.4,1.72 -4.79,3.44 -7.17,5.15 2.9,1.76 5.82,3.53 8.74,5.3 2.93,1.78 5.88,3.58 8.84,5.37 0.12,-0.88 -0.02,-2.08 -0.3,-3.26 -0.32,-1.3 -1.03,-3.32 -1.97,-4.21 -0.55,-0.53 -1.05,-0.72 -1.52,-0.91 -0.7,-0.28 -1.33,-0.53 -2.01,-1.57 -0.76,-1.18 -0.56,-2.33 -0.73,-3.53zm-2.94 -10.59c2.45,1.46 4.9,2.93 7.37,4.39 2.47,1.47 4.95,2.95 7.44,4.43 0.07,-0.55 0.15,-1.11 0.23,-1.66 -4.78,-2.85 -9.55,-5.68 -14.27,-8.49 -0.26,0.44 -0.52,0.89 -0.77,1.33zm24.14 -12.04c-1.11,-0.64 -2.2,-1.28 -3.3,-1.92 0.1,0.97 0.21,1.94 0.32,2.9 1.12,0.65 2.23,1.3 3.36,1.96 -0.13,-0.98 -0.25,-1.96 -0.38,-2.94zm-2.93 1.53c0.03,0.35 0.07,0.69 0.11,1.04 1.13,0.66 2.26,1.32 3.4,1.98 -0.05,-0.35 -0.09,-0.7 -0.14,-1.06 -1.12,-0.66 -2.25,-1.31 -3.37,-1.96zm0.17 1.58c0.32,2.98 0.65,5.95 0.97,8.93 1.19,0.7 2.39,1.4 3.59,2.11 -0.38,-3.02 -0.77,-6.03 -1.15,-9.05 -0.31,-0.18 -0.63,-0.36 -0.93,-0.54 0.14,1.75 0.28,3.5 0.42,5.25 -0.12,-0.02 -0.23,-0.04 -0.34,-0.06 -0.15,-1.79 -0.29,-3.59 -0.43,-5.39 -0.71,-0.42 -1.42,-0.83 -2.13,-1.24zm1.03 9.47c0.08,0.71 0.16,1.43 0.23,2.13 1.21,0.71 2.43,1.43 3.65,2.15 -0.1,-0.72 -0.19,-1.44 -0.28,-2.16 -1.2,-0.71 -2.41,-1.42 -3.6,-2.12zm0.29 2.67c0.16,1.5 0.33,3 0.5,4.5 -1.19,-0.7 -2.38,-1.41 -3.56,-2.11 -0.2,3.5 -0.41,7.01 -0.61,10.51 -0.12,-0.05 -0.23,-0.11 -0.34,-0.16 3.24,1.94 6.5,3.89 9.77,5.85 -0.35,-2.74 -0.71,-5.49 -1.05,-8.22 -0.34,-2.73 -0.7,-5.48 -1.04,-8.21 -1.22,-0.72 -2.44,-1.44 -3.66,-2.16zm-3.74 1.99c-0.9,-0.53 -1.79,-1.06 -2.68,-1.59 -0.47,3.35 -0.95,6.69 -1.43,10.04 1.16,0.7 2.32,1.4 3.5,2.1 0.2,-3.51 0.41,-7.03 0.61,-10.54zm-3.35 -1.99c-2.2,-1.3 -4.4,-2.6 -6.58,-3.9 -0.24,1.11 -0.48,2.23 -0.71,3.35 2.26,1.34 4.53,2.69 6.8,4.04 0.17,-1.16 0.33,-2.32 0.49,-3.49zm-6.92 -4.1c-2.03,-1.2 -4.05,-2.4 -6.06,-3.59 -0.55,0.93 -1.09,1.85 -1.64,2.78 2.32,1.38 4.65,2.76 6.99,4.16 0.23,-1.12 0.47,-2.23 0.71,-3.35zm-6.79 -4.03c-1.02,-0.6 -2.03,-1.2 -3.03,-1.8 -1.87,2.49 -3.74,4.96 -5.59,7.44 1.31,0.78 2.61,1.56 3.92,2.35 1.56,-2.66 3.13,-5.32 4.7,-7.99zm-3.81 -2.26c-2.16,-1.28 -4.3,-2.55 -6.45,-3.82 -2.38,2.17 -4.75,4.32 -7.12,6.47 2.66,1.59 5.32,3.18 7.99,4.79 0.73,-0.98 1.46,-1.95 2.19,-2.92 -2.47,-1.48 -4.93,-2.95 -7.38,-4.41 0.11,-0.1 0.21,-0.2 0.33,-0.3 2.43,1.45 4.86,2.9 7.31,4.36 0.7,-0.93 1.4,-1.88 2.11,-2.82 -2.25,-1.34 -4.49,-2.67 -6.73,-4 0.11,-0.1 0.21,-0.2 0.33,-0.3 2.21,1.31 4.43,2.63 6.65,3.95 0.25,-0.34 0.5,-0.67 0.76,-1.01zm-0.15 10.69c2.74,1.64 5.49,3.29 8.25,4.94 2.76,1.65 5.55,3.32 8.34,4.99 -0.11,-0.07 -0.22,-0.15 -0.34,-0.22 0.19,-1.31 0.37,-2.62 0.57,-3.93 -2.51,-1.5 -5.02,-3 -7.52,-4.49 -2.49,-1.49 -4.97,-2.96 -7.44,-4.44 -0.62,1.05 -1.24,2.1 -1.85,3.14zm5.84 -32.61c-2.22,-1.28 -5.33,-0.5 -3.48,3.01 0.74,1.42 1.92,2.57 2.99,3.2 1.05,0.62 2.31,0.92 3.25,0.5 1.37,-0.61 1.05,-2.57 -0.11,-4.26 -0.7,-1.03 -1.69,-1.89 -2.65,-2.45zm-0.03 1.8c-0.57,-0.33 -1.24,-0.34 -1.4,0.25 -0.16,0.59 0.45,1.58 1.17,2 0.71,0.41 1.44,0.24 1.42,-0.5 -0.02,-0.74 -0.62,-1.42 -1.19,-1.75zm-3.13 -3.75c2.05,-0.37 4.95,1.27 6.72,3.85 0.91,1.33 1.58,3.11 1.4,4.74 -0.12,1.21 -0.71,1.99 -1.55,2.37 -2.38,1.04 -6.04,-1.15 -7.9,-4.69 -0.65,-1.24 -0.99,-2.53 -0.88,-3.66 0.17,-1.6 1.17,-2.43 2.21,-2.62z"/>
  </g>
 </g>
</svg>
